<?xml version="1.0" standalone="no"?>
<!DOCTYPE svg PUBLIC "-//W3C//DTD SVG 20010904//EN"
 "http://www.w3.org/TR/2001/REC-SVG-20010904/DTD/svg10.dtd">
<svg version="1.0" xmlns="http://www.w3.org/2000/svg"
 width="1080.000000pt" height="1080.000000pt" viewBox="0 0 1080.000000 1080.000000"
 preserveAspectRatio="xMidYMid meet">

<g transform="translate(0.000000,1080.000000) scale(0.100000,-0.100000)"
fill="#000000" stroke="none">
<path d="M7935 9933 c-290 -25 -511 -85 -740 -199 -97 -49 -178 -97 -210 -125
-11 -10 -32 -24 -47 -32 -49 -25 -187 -159 -289 -279 -54 -65 -99 -119 -99
-122 0 -3 -20 -36 -44 -73 -24 -37 -53 -85 -65 -105 -11 -21 -31 -55 -43 -75
-70 -123 -182 -381 -218 -503 -88 -296 -197 -572 -279 -705 -20 -33 -43 -72
-50 -87 -29 -56 -203 -257 -322 -372 -211 -203 -535 -546 -658 -696 -34 -41
-76 -93 -94 -115 -135 -161 -485 -666 -622 -895 -21 -36 -46 -74 -55 -85 -9
-11 -29 -40 -43 -65 -15 -25 -33 -54 -40 -65 -11 -19 -319 -488 -433 -661 -64
-97 -74 -122 -74 -178 0 -80 47 -89 112 -20 52 55 211 193 253 219 17 10 50
35 74 54 43 34 97 73 209 148 29 20 54 34 57 31 5 -5 -177 -186 -306 -304 -41
-38 -125 -115 -186 -171 -103 -95 -186 -153 -220 -153 -24 0 -63 32 -80 64
l-16 31 -16 -24 c-9 -13 -31 -49 -48 -80 -61 -106 -114 -196 -123 -211 -5 -8
-34 -67 -65 -130 -45 -94 -55 -123 -55 -167 0 -95 28 -122 111 -109 41 7 146
55 170 78 8 7 27 22 44 32 16 11 81 60 145 110 181 143 220 174 296 231 39 30
78 60 85 67 8 7 39 31 69 53 30 22 61 47 68 57 7 10 34 30 60 45 26 15 64 40
84 56 21 16 56 38 77 50 22 12 85 52 140 90 56 37 105 67 109 67 5 0 16 8 25
18 8 9 41 30 71 46 31 16 56 33 56 38 0 4 -25 8 -55 8 -112 0 -200 32 -247 90
-23 29 -30 50 -36 110 -7 72 -8 74 -38 82 -60 15 -69 37 -68 162 1 97 5 120
29 176 15 36 40 101 57 145 32 85 85 195 127 260 14 22 34 56 44 75 10 19 31
51 46 70 14 19 33 48 41 63 16 33 28 17 12 -16 -6 -12 -20 -42 -31 -67 -11
-25 -26 -56 -35 -70 -36 -61 -133 -329 -167 -462 -25 -96 -22 -194 6 -214 34
-25 163 4 334 75 40 17 78 31 85 31 33 -2 -169 -148 -282 -204 -47 -23 -52
-31 -52 -84 0 -34 6 -48 26 -67 26 -24 32 -25 170 -25 195 0 303 27 501 124
93 46 113 53 113 38 0 -13 -48 -54 -170 -144 -143 -105 -168 -150 -119 -212
21 -27 24 -27 103 -23 97 5 167 20 221 45 222 105 311 156 425 246 57 45 63
47 46 21 -59 -92 -164 -206 -254 -275 -64 -49 -78 -105 -29 -112 35 -5 222 27
242 41 6 4 26 14 45 21 19 7 66 33 103 57 37 24 70 43 73 43 14 0 106 81 187
162 48 49 87 83 87 76 0 -29 -57 -112 -165 -241 -85 -101 -105 -130 -105 -149
0 -40 105 -51 167 -18 21 11 44 20 53 20 39 0 298 191 372 274 20 22 39 38 42
35 6 -6 -17 -44 -101 -172 -54 -80 -52 -103 5 -92 42 7 134 52 202 98 129 88
335 269 426 375 30 35 54 58 54 51 0 -7 -6 -20 -14 -28 -7 -9 -39 -54 -71
-100 -89 -131 -221 -278 -300 -336 -22 -16 -42 -32 -45 -35 -13 -16 -105 -71
-165 -100 -77 -37 -186 -63 -224 -53 -14 3 -33 12 -42 20 -15 12 -22 10 -64
-18 -54 -36 -179 -79 -231 -79 -65 0 -125 21 -161 57 -32 33 -35 34 -53 18
-10 -9 -36 -28 -58 -43 -22 -15 -78 -56 -124 -92 -45 -36 -109 -83 -140 -105
-160 -113 -206 -143 -233 -159 -52 -29 -161 -99 -239 -153 -41 -29 -78 -53
-81 -53 -3 0 -45 -25 -93 -57 -116 -75 -263 -163 -272 -163 -4 0 -23 -11 -43
-25 -20 -13 -74 -44 -120 -68 -45 -24 -95 -52 -111 -62 -29 -19 -153 -76 -218
-100 -20 -7 -79 -33 -130 -56 -123 -55 -146 -65 -193 -79 -22 -6 -60 -19 -85
-27 -65 -22 -163 -42 -173 -36 -5 3 15 14 44 24 29 10 147 65 263 123 116 57
218 106 226 110 8 3 44 24 80 45 36 22 96 56 133 76 38 20 101 55 140 78 40
23 88 51 107 61 30 16 69 40 215 132 17 10 39 24 50 30 11 6 36 20 55 32 19
12 49 29 65 38 17 9 60 36 97 60 37 24 69 44 72 44 2 0 40 24 84 53 44 28 154
99 243 157 188 120 245 160 253 177 3 8 -5 8 -31 1 -60 -16 -170 6 -208 42
-13 12 -29 35 -35 51 l-12 28 -42 -21 c-22 -11 -55 -31 -72 -44 -17 -13 -34
-24 -38 -24 -6 0 -66 -39 -141 -90 -31 -22 -83 -57 -200 -136 -38 -26 -72 -50
-75 -54 -3 -3 -43 -31 -90 -62 -47 -30 -116 -76 -155 -101 -38 -25 -99 -66
-135 -92 -36 -26 -103 -72 -150 -104 -47 -31 -99 -66 -115 -77 -78 -53 -175
-114 -225 -142 -30 -16 -73 -40 -95 -53 -22 -12 -52 -28 -66 -36 -15 -7 -32
-20 -39 -28 -7 -8 -97 -57 -201 -109 -157 -79 -243 -116 -429 -184 -75 -27
-312 -92 -340 -92 -23 0 -24 1 -5 13 11 7 40 19 65 27 25 7 50 17 55 21 6 4
35 14 65 23 30 9 73 24 95 34 22 11 65 30 95 44 141 66 371 183 430 220 36 23
97 59 135 81 39 22 86 52 105 67 19 15 73 50 120 79 47 28 96 60 110 70 14 10
70 48 125 83 84 55 243 159 464 304 24 16 63 40 85 53 23 13 65 40 95 60 73
48 223 135 289 167 59 29 60 44 2 44 -48 0 -124 25 -163 53 -40 30 -57 67 -57
126 0 27 -5 53 -10 56 -14 9 -144 -73 -243 -154 -45 -36 -92 -73 -103 -81 -22
-15 -63 -47 -219 -170 -49 -39 -115 -89 -145 -112 -30 -23 -71 -56 -90 -74
-19 -18 -49 -43 -67 -56 -17 -13 -71 -55 -120 -94 -159 -128 -177 -143 -273
-211 -52 -37 -124 -89 -160 -116 -35 -27 -71 -52 -80 -55 -8 -3 -26 -14 -40
-24 -29 -21 -127 -48 -174 -48 -43 0 -123 51 -132 85 -3 14 -11 25 -18 25 -12
-1 -56 -58 -96 -126 -14 -23 -42 -68 -62 -98 -21 -31 -38 -58 -38 -61 0 -2
-16 -38 -35 -79 -19 -41 -35 -77 -35 -79 0 -3 -7 -21 -15 -40 -21 -51 -45 -40
-45 22 0 42 47 212 63 228 4 3 7 12 7 19 0 12 -38 -20 -157 -131 -23 -22 -71
-66 -105 -97 -35 -31 -116 -104 -180 -163 -82 -74 -120 -116 -128 -140 -6 -19
-16 -35 -21 -35 -5 0 -9 -7 -9 -15 0 -24 102 -48 179 -42 144 12 480 61 560
82 30 8 57 12 61 10 3 -2 37 5 75 15 39 11 84 20 102 20 17 0 44 5 60 11 25 9
238 63 303 76 14 2 34 8 45 13 11 5 38 13 60 18 290 70 836 261 1170 410 138
61 501 253 630 333 260 160 517 329 571 376 97 83 137 114 141 109 2 -2 -12
-29 -31 -59 -20 -31 -36 -59 -36 -63 0 -4 -12 -28 -27 -53 -34 -58 -92 -217
-93 -255 0 -5 25 -6 55 -2 307 36 839 446 1171 903 132 182 175 252 257 423
109 228 117 245 117 259 0 7 9 31 19 54 11 24 23 55 26 70 4 15 12 27 17 27
11 0 6 -69 -11 -167 -24 -132 -122 -388 -181 -473 -9 -14 -38 -64 -63 -112
-46 -86 -79 -135 -190 -282 -67 -89 -368 -399 -424 -436 -20 -14 -56 -41 -79
-60 -72 -60 -87 -70 -179 -125 -238 -140 -407 -211 -526 -221 -73 -6 -75 -6
-107 24 -39 36 -43 82 -12 139 21 39 25 63 13 63 -5 0 -34 -20 -65 -45 -32
-25 -62 -45 -67 -45 -5 0 -14 -7 -22 -16 -7 -8 -31 -25 -53 -36 -39 -20 -206
-126 -216 -137 -3 -3 -81 -44 -175 -90 -93 -46 -178 -91 -187 -98 -9 -8 -60
-32 -112 -53 -53 -21 -109 -48 -125 -59 -34 -24 -102 -55 -186 -83 -33 -11
-114 -42 -180 -69 -66 -27 -172 -65 -235 -84 -63 -20 -128 -42 -145 -50 -16
-7 -59 -21 -93 -30 -35 -9 -71 -20 -80 -24 -57 -28 -246 -77 -502 -130 -80
-17 -161 -35 -180 -41 -19 -6 -60 -15 -90 -20 -30 -5 -75 -14 -100 -20 -55
-12 -359 -59 -457 -70 -72 -9 -125 -30 -198 -80 -22 -15 -62 -39 -90 -54 -27
-15 -95 -54 -150 -87 -55 -33 -120 -70 -145 -82 -47 -23 -78 -42 -145 -87 -22
-14 -74 -43 -115 -65 -41 -21 -133 -70 -205 -110 -71 -40 -150 -82 -175 -95
-25 -12 -62 -36 -82 -52 -21 -16 -61 -42 -90 -57 -71 -38 -134 -74 -264 -149
-140 -81 -391 -223 -429 -242 -74 -37 -194 -120 -200 -139 -16 -53 45 -92 155
-99 111 -6 290 26 387 69 24 11 47 19 52 19 13 0 245 113 291 142 19 11 71 44
115 73 44 28 134 82 200 120 66 38 134 79 151 92 17 13 34 23 38 23 4 0 33 17
64 39 95 64 163 105 240 145 66 34 124 66 237 132 22 13 47 27 55 31 32 15
186 107 209 125 13 10 32 18 43 18 17 0 16 -3 -9 -24 -15 -12 -38 -28 -51 -35
-12 -6 -52 -33 -88 -59 -36 -26 -78 -54 -93 -63 -14 -9 -82 -55 -151 -104 -69
-48 -208 -142 -310 -209 -102 -68 -212 -140 -244 -162 -32 -21 -73 -48 -90
-58 -17 -11 -83 -54 -147 -95 -64 -42 -156 -102 -205 -134 -49 -32 -118 -78
-154 -103 -36 -25 -79 -54 -97 -65 -69 -44 -4 -66 147 -49 119 13 135 16 240
47 136 39 210 80 425 234 39 27 88 61 109 76 22 14 49 34 60 45 12 11 32 26
46 33 14 7 38 27 54 44 17 17 34 31 38 31 8 0 88 57 193 138 28 22 111 81 185
132 74 51 146 101 160 111 14 10 84 60 155 110 72 51 132 96 133 101 2 4 11 8
20 8 13 0 11 -5 -9 -23 -52 -44 -120 -100 -154 -126 -56 -43 -138 -111 -175
-145 -112 -101 -502 -420 -542 -444 -16 -9 -28 -19 -28 -23 0 -4 -24 -24 -52
-45 -29 -21 -92 -70 -139 -109 -48 -38 -110 -88 -139 -110 -152 -116 -220
-186 -220 -228 0 -43 103 -66 216 -48 156 24 337 102 491 211 64 47 262 200
300 235 6 5 44 38 85 72 142 120 316 269 414 355 140 123 271 235 344 293 84
68 260 213 285 236 11 10 49 42 85 70 36 28 77 62 92 76 14 14 32 23 40 20 8
-2 -62 -80 -181 -201 -107 -108 -192 -199 -189 -202 7 -6 191 41 220 57 10 5
26 9 36 9 45 0 331 71 567 140 172 51 212 50 465 -4 252 -53 334 -66 431 -66
l86 0 13 45 c7 25 16 45 21 45 5 0 24 -33 43 -72 19 -40 43 -82 53 -93 10 -11
33 -40 50 -65 48 -69 91 -109 152 -138 59 -29 136 -99 241 -222 36 -41 103
-113 150 -160 132 -131 147 -152 142 -192 l-4 -35 -97 -12 c-73 -9 -111 -9
-147 -1 -27 6 -78 12 -114 13 -55 1 -75 -4 -129 -31 -76 -38 -106 -64 -132
-114 -19 -36 -28 -148 -12 -148 4 0 32 27 63 60 52 56 59 60 100 60 25 0 70
-7 100 -15 69 -19 167 -19 245 0 33 8 102 15 154 15 103 0 159 -18 271 -88 56
-36 106 -65 149 -88 60 -32 142 -95 208 -160 70 -69 72 -73 79 -133 3 -33 10
-61 14 -61 12 0 38 44 55 92 25 71 19 125 -19 199 -35 65 -53 85 -116 128 -44
30 -100 82 -100 93 0 22 112 -8 235 -63 37 -16 78 -24 155 -29 98 -5 109 -8
154 -39 36 -25 54 -47 72 -87 13 -30 26 -54 28 -54 2 0 9 29 15 65 17 96 2
144 -62 200 -28 25 -81 56 -117 71 -36 14 -87 41 -115 60 -61 41 -167 64 -300
64 -49 1 -135 8 -191 18 -100 17 -101 18 -170 77 -38 33 -135 131 -214 219
-80 87 -184 201 -232 252 -49 52 -88 102 -88 113 0 10 26 47 58 82 64 71 127
164 191 281 23 42 51 87 62 100 l20 23 -6 -50 c-6 -43 -33 -134 -60 -197 -6
-16 -1 -18 39 -18 25 0 92 7 148 15 57 9 137 20 178 26 179 26 512 124 672
198 26 11 49 21 52 21 3 0 35 14 71 30 36 17 68 30 71 30 11 0 263 127 340
171 179 102 467 308 591 422 126 115 353 350 425 438 57 70 193 253 201 269 4
8 41 67 82 130 83 129 247 445 289 560 15 41 35 91 44 110 33 73 84 227 92
275 5 28 15 77 23 110 8 33 20 87 27 120 6 33 18 89 26 125 8 36 14 79 14 97
0 18 4 54 10 80 5 26 14 149 20 273 13 283 2 529 -41 900 -21 182 -23 395 -5
498 27 150 34 174 115 397 4 11 17 40 29 65 23 46 28 70 15 70 -5 0 -38 7 -74
14 -131 28 -209 88 -289 221 -53 88 -95 133 -142 152 -20 8 -39 21 -42 28 -2
7 15 38 38 68 24 31 58 79 76 109 34 55 80 128 165 258 56 86 136 175 180 198
44 24 97 42 123 42 40 0 31 64 -36 240 -33 88 -56 133 -112 215 -89 131 -290
313 -429 388 -59 32 -73 34 -64 10 3 -10 -3 -7 -13 7 -27 37 -51 52 -144 88
-103 40 -246 79 -360 98 -47 8 -109 19 -139 24 -51 9 -245 11 -336 3z m151
-241 c1 -7 0 -8 -3 -2 -2 5 -13 10 -23 10 -14 0 -20 -9 -23 -37 -3 -36 -4 -35
-5 9 -2 46 -2 46 25 39 15 -4 28 -13 29 -19z m-538 -23 c-3 -20 -5 -19 -9 9
-3 20 -2 29 4 23 5 -5 7 -19 5 -32z m426 35 c22 -8 22 -74 1 -74 -12 0 -13 4
-5 19 12 24 4 48 -18 54 -10 3 -12 5 -5 6 6 0 18 -2 27 -5z m306 2 c0 -2 -7
-6 -15 -10 -8 -3 -15 -1 -15 4 0 6 7 10 15 10 8 0 15 -2 15 -4z m240 -10 c15
-19 9 -58 -10 -64 -13 -4 -13 -3 -2 11 18 21 6 55 -21 60 -22 4 -22 4 -1 6 12
0 27 -6 34 -13z m-588 -31 c2 -19 0 -35 -4 -35 -4 0 -8 16 -8 35 0 19 2 35 4
35 2 0 6 -16 8 -35z m654 15 c8 0 14 -5 14 -10 0 -7 -6 -7 -20 0 -11 6 -20 16
-19 23 0 9 2 9 6 0 2 -7 11 -13 19 -13z m134 -3 l25 -4 -27 -2 c-31 -1 -47
-19 -27 -32 11 -7 11 -9 -2 -9 -20 0 -32 26 -23 52 4 13 9 16 17 9 7 -5 23
-11 37 -14z m-244 -40 c8 -4 14 -12 14 -18 0 -5 -9 -4 -20 3 -13 9 -20 23 -19
43 2 27 2 28 6 5 3 -14 11 -29 19 -33z m141 1 c-3 -8 -6 -5 -6 6 -1 11 2 17 5
13 3 -3 4 -12 1 -19z m-1210 -4 c-3 -3 -12 -4 -19 -1 -8 3 -5 6 6 6 11 1 17
-2 13 -5z m979 -141 c-10 -10 -19 5 -10 18 6 11 8 11 12 0 2 -7 1 -15 -2 -18z
m119 7 c3 -5 -2 -10 -12 -10 -11 0 -24 -5 -31 -12 -9 -9 -12 -8 -12 4 0 24 43
38 55 18z m-1111 -31 c-10 -16 -24 -9 -24 12 0 18 2 19 15 9 8 -7 12 -16 9
-21z m232 13 c17 -11 26 -49 18 -74 -7 -21 -9 -19 -14 12 -7 46 -40 56 -40 11
0 -16 -4 -33 -10 -36 -6 -4 -10 11 -10 39 0 49 24 70 56 48z m111 0 c6 -4 14
-23 18 -43 10 -56 -33 -90 -69 -53 -21 20 -20 29 4 52 13 12 18 25 14 35 -6
18 11 23 33 9z m124 -13 c10 -19 10 -19 36 1 31 24 46 25 67 5 20 -20 10 -45
-18 -45 -34 0 -39 -12 -14 -32 29 -22 3 -25 -29 -3 -12 8 -29 12 -37 9 -12 -5
-18 2 -23 27 -6 32 -6 32 -16 8 l-9 -24 -11 25 -11 25 -4 -30 c-6 -48 -22 -54
-22 -9 0 47 11 61 50 62 20 0 34 -6 41 -19z m-893 4 c-10 -2 -18 -9 -18 -14 0
-5 -5 -9 -11 -9 -8 0 -8 5 1 15 7 8 20 14 29 14 13 -1 13 -2 -1 -6z m130 -5
c23 -23 8 -78 -20 -78 -5 0 -3 8 3 19 16 24 5 51 -21 51 -15 0 -20 -7 -20 -29
0 -16 6 -32 13 -34 7 -3 5 -6 -5 -6 -22 -1 -33 40 -18 68 12 23 49 28 68 9z
m112 -13 c10 -26 4 -55 -11 -55 -5 0 -9 14 -9 31 0 45 -33 36 -40 -11 l-6 -35
-6 35 c-7 48 -1 60 33 60 22 0 32 -6 39 -25z m1404 9 c3 -9 6 -29 6 -45 0 -23
-5 -30 -27 -35 -19 -5 -30 -2 -39 11 -15 20 -3 45 22 45 17 0 18 12 2 28 -9 9
-7 12 9 12 11 0 24 -7 27 -16z m104 4 c7 -7 11 -28 11 -47 -2 -34 -2 -35 -6
-6 -6 39 -23 59 -37 45 -14 -14 -26 -12 -26 5 0 18 41 20 58 3z m110 0 c19
-19 15 -78 -4 -78 -10 0 -14 6 -11 15 7 16 -8 29 -23 20 -7 -4 -7 -13 0 -26
11 -20 4 -24 -19 -10 -19 12 -4 51 20 51 22 0 24 11 7 28 -9 9 -9 12 3 12 8 0
20 -5 27 -12z m84 0 c-7 -7 -12 -25 -12 -40 0 -15 -4 -28 -10 -28 -11 0 -14
63 -3 73 3 4 13 7 22 7 12 0 12 -3 3 -12z m-1628 -12 c-3 -7 2 -16 10 -19 17
-7 22 -47 7 -47 -5 0 -7 9 -4 20 4 13 0 20 -10 20 -17 0 -40 24 -30 33 12 13
32 7 27 -7z m1956 4 c0 -5 -4 -10 -10 -10 -5 0 -10 5 -10 10 0 6 5 10 10 10 6
0 10 -4 10 -10z m-763 -69 c10 -6 13 -11 7 -11 -21 0 -54 37 -54 61 1 22 2 21
14 -7 8 -18 22 -37 33 -43z m548 1 c-7 -15 -8 -15 -15 3 -15 35 -12 48 6 30
10 -9 13 -22 9 -33z m219 -1 c3 -4 -1 -17 -9 -27 -14 -18 -14 -18 -15 9 0 26
13 36 24 18z m-1736 -142 c2 -30 10 -61 18 -70 20 -23 1 -34 -21 -13 -11 11
-15 31 -14 63 1 25 -2 54 -6 65 -6 14 -4 18 6 14 9 -3 15 -23 17 -59z m1193 9
c1 -24 1 -47 0 -51 -1 -4 3 -17 9 -27 9 -17 7 -20 -10 -20 -18 0 -20 4 -14 39
4 22 1 47 -5 60 -12 22 -7 41 10 41 5 0 10 -19 10 -42z m-868 -11 c-16 -10 -9
-42 16 -71 15 -17 15 -18 -9 -15 -20 3 -26 10 -28 39 -2 19 -7 39 -12 44 -5 5
-5 17 1 28 10 19 11 19 28 1 15 -15 16 -19 4 -26z m-657 -4 c-10 -10 -19 5
-10 18 6 11 8 11 12 0 2 -7 1 -15 -2 -18z m902 -40 c3 -36 0 -41 -22 -45 -54
-11 -79 42 -31 64 22 10 23 13 10 20 -8 5 -13 14 -9 19 13 22 49 -18 52 -58z
m-981 41 c19 -19 9 -29 -34 -37 -37 -7 -43 5 -16 35 20 22 30 23 50 2z m331
-5 c14 -37 2 -79 -24 -85 -50 -13 -75 47 -29 68 23 10 23 12 7 24 -15 12 -14
13 11 14 19 0 30 -6 35 -21z m220 9 c21 -21 14 -38 -16 -38 -16 0 -31 -3 -35
-6 -7 -8 17 -34 32 -34 6 0 11 -4 11 -10 0 -27 -64 6 -72 38 -9 33 9 62 40 62
15 0 33 -5 40 -12z m80 1 c-13 -7 -18 -22 -18 -50 0 -24 -4 -38 -10 -34 -5 3
-10 26 -10 51 0 41 2 44 28 44 23 -1 24 -2 10 -11z m240 -42 c2 -33 0 -47 -7
-42 -6 3 -11 21 -11 40 0 19 -6 35 -14 38 -21 8 -26 -2 -26 -47 0 -30 -3 -37
-10 -26 -11 18 -13 73 -3 84 4 4 21 6 38 4 28 -3 30 -6 33 -51z m190 46 c-24
-6 -23 -14 9 -39 24 -19 26 -24 14 -38 -15 -17 -61 -22 -61 -6 0 5 6 7 14 4 8
-3 17 0 22 7 4 7 2 15 -4 17 -45 15 -48 63 -3 61 17 -1 20 -3 9 -6z m131 -2
c21 -13 5 -41 -24 -41 -27 0 -28 -1 -19 -24 3 -9 15 -16 25 -16 10 0 19 -4 19
-10 0 -18 -33 -11 -57 12 -51 48 -3 116 56 79z m521 -1 c0 -5 -4 -10 -10 -10
-5 0 -10 5 -10 10 0 6 5 10 10 10 6 0 10 -4 10 -10z m-1839 -67 c13 -16 12
-17 -3 -4 -10 7 -18 15 -18 17 0 8 8 3 21 -13z m1512 10 c-7 -2 -19 -2 -25 0
-7 3 -2 5 12 5 14 0 19 -2 13 -5z m-1407 -30 c-6 -6 -36 9 -36 18 0 5 9 4 20
-3 10 -7 18 -14 16 -15z m1734 2 c0 -8 -4 -15 -10 -15 -5 0 -10 7 -10 15 0 8
5 15 10 15 6 0 10 -7 10 -15z m-820 -149 c0 -3 -4 -8 -10 -11 -5 -3 -10 -1
-10 4 0 6 5 11 10 11 6 0 10 -2 10 -4z m550 -33 c66 -29 132 -99 170 -179 65
-135 39 -271 -72 -383 -126 -125 -351 -111 -476 28 -13 14 -37 54 -54 89 -27
58 -30 70 -26 145 4 99 29 155 103 235 66 70 129 94 235 89 45 -3 93 -12 120
-24z m-880 -27 c0 -2 -11 -6 -25 -8 -14 -3 -25 -1 -25 3 0 5 11 9 25 9 14 0
25 -2 25 -4z m310 -27 c0 -11 -4 -17 -10 -14 -5 3 -10 13 -10 21 0 8 5 14 10
14 6 0 10 -9 10 -21z m-683 -21 c-3 -7 -5 -2 -5 12 0 14 2 19 5 13 2 -7 2 -19
0 -25z m420 0 c-3 -7 -5 -2 -5 12 0 14 2 19 5 13 2 -7 2 -19 0 -25z m-89 -13
c10 -4 21 1 29 11 12 16 13 15 13 -8 0 -22 -4 -25 -22 -21 -32 8 -48 23 -47
42 1 14 2 14 6 -1 2 -9 12 -19 21 -23z m152 -21 c0 -8 -4 -12 -10 -9 -5 3 -10
10 -10 16 0 5 5 9 10 9 6 0 10 -7 10 -16z m220 -24 c0 -5 -2 -10 -4 -10 -3 0
-8 5 -11 10 -3 6 -1 10 4 10 6 0 11 -4 11 -10z m-1103 -142 c-3 -8 -6 -5 -6 6
-1 11 2 17 5 13 3 -3 4 -12 1 -19z m461 -60 l-3 -73 -34 0 c-43 0 -59 23 -45
62 5 15 22 34 37 41 15 7 27 20 27 28 0 7 5 14 10 14 7 0 10 -27 8 -72z m290
-8 c0 -35 4 -66 12 -75 14 -17 8 -31 -9 -20 -6 3 -11 15 -11 26 0 11 -5 30
-11 42 -9 16 -9 22 0 25 6 2 11 17 11 33 0 16 2 29 4 29 3 0 4 -27 4 -60z
m-753 -55 c8 -18 7 -19 -8 -6 -12 10 -17 28 -16 65 l2 51 7 -45 c4 -25 11 -54
15 -65z m654 -1 c-20 -24 -29 -15 -13 14 7 15 15 43 16 62 1 27 2 24 5 -13 3
-28 -1 -55 -8 -63z m-519 84 c0 -4 -9 -8 -19 -8 -21 0 -31 -19 -31 -56 0 -13
-4 -24 -10 -24 -11 0 -14 82 -4 93 9 9 64 5 64 -5z m98 0 c22 -22 14 -48 -13
-48 -16 0 -25 -6 -25 -15 0 -8 9 -15 20 -15 11 0 20 -4 20 -10 0 -16 -42 -12
-62 7 -22 20 -23 42 -2 71 17 24 43 29 62 10z m100 6 c20 -6 23 -12 20 -53 -3
-43 -5 -46 -34 -49 -18 -2 -36 3 -43 12 -11 13 -8 19 12 40 19 19 21 26 11 30
-17 7 -18 26 -1 26 6 0 22 -3 35 -6z m228 -56 c-4 -28 -12 -60 -17 -70 -11
-20 -34 -24 -44 -8 -3 6 -1 10 6 10 11 0 10 18 -6 83 -6 21 -3 26 17 30 52 10
51 10 44 -45z m396 -190 c-9 -9 -12 -7 -12 12 0 19 3 21 12 12 9 -9 9 -15 0
-24z m-852 7 c-13 -16 -40 -20 -40 -7 0 14 12 22 33 22 16 0 17 -3 7 -15z
m131 -1 c10 -13 10 -17 -2 -25 -8 -5 -19 -9 -25 -9 -7 0 -15 -7 -18 -16 -8
-21 -26 -8 -26 20 0 42 45 62 71 30z m76 9 c-11 -3 -16 -11 -13 -19 3 -8 1
-14 -4 -14 -6 0 -10 9 -10 20 0 14 6 20 23 19 18 -1 18 -2 4 -6z m238 -4 c11
-16 1 -19 -13 -3 -7 8 -8 14 -3 14 5 0 13 -5 16 -11z m115 -29 c0 -29 -5 -42
-19 -50 -26 -13 -31 -13 -31 4 0 8 9 18 21 21 16 6 20 13 17 36 -3 16 -1 29 4
29 4 0 8 -18 8 -40z m72 5 c-2 -19 -6 -35 -8 -35 -2 0 -4 16 -4 35 0 19 4 35
8 35 4 0 6 -16 4 -35z m-292 -20 c0 -37 -3 -45 -18 -45 -21 0 -59 37 -48 47 3
4 13 -3 22 -15 14 -21 41 -22 29 -2 -6 9 4 60 11 60 2 0 4 -20 4 -45z m-113
-30 c-7 -16 -47 -21 -47 -5 0 6 9 10 20 10 11 0 20 5 20 12 0 6 3 9 6 5 4 -3
4 -13 1 -22z m203 -12 c0 -2 -9 -3 -20 -3 -13 0 -20 7 -20 20 0 19 1 19 20 3
11 -10 20 -19 20 -20z m421 -10 c-9 -16 -10 -14 -11 12 0 21 3 26 11 18 8 -8
8 -16 0 -30z m-734 11 c-3 -3 -12 -4 -19 -1 -8 3 -5 6 6 6 11 1 17 -2 13 -5z
m955 -143 c-2 -40 1 -77 7 -90 8 -14 8 -21 1 -21 -6 0 -12 6 -14 13 -2 6 -8
28 -14 47 -8 22 -8 38 -2 44 6 6 10 22 10 36 0 21 7 40 14 40 1 0 0 -31 -2
-69z m-865 27 c-3 -7 -5 -2 -5 12 0 14 2 19 5 13 2 -7 2 -19 0 -25z m683 -38
l0 -70 -34 0 c-29 0 -36 5 -44 30 -9 24 -7 33 9 55 11 14 27 25 35 25 8 0 14
7 14 15 0 8 5 15 10 15 6 0 10 -30 10 -70z m-558 28 c8 -7 18 -28 22 -45 4
-27 1 -36 -19 -49 -43 -28 -80 5 -56 50 7 12 11 26 10 32 -5 27 16 33 43 12z
m333 3 c3 -6 -4 -15 -15 -21 -14 -8 -20 -21 -20 -45 0 -36 -16 -47 -27 -19
-10 27 16 94 37 94 10 0 21 -4 25 -9z m98 -5 c11 -9 17 -27 17 -55 0 -47 -17
-60 -56 -43 -35 16 -31 48 9 69 24 13 28 18 15 21 -10 2 -18 8 -18 13 0 13 12
11 33 -5z m-203 -11 c13 -16 7 -45 -10 -45 -5 0 -10 10 -10 23 -1 21 -1 22
-15 3 -22 -29 -18 -43 13 -54 23 -9 24 -11 5 -11 -41 -2 -53 9 -53 49 0 21 6
41 13 43 23 10 45 7 57 -8z m-350 -85 c0 -8 -7 -2 -15 14 -8 15 -15 40 -15 55
1 22 3 20 15 -14 8 -22 15 -47 15 -55z m193 70 c3 -11 10 -20 15 -20 6 0 14 9
17 20 5 17 25 29 25 15 0 -15 -34 -85 -41 -85 -8 0 -39 64 -39 81 0 17 18 9
23 -11z m561 -74 c-25 -40 -37 -31 -14 11 11 21 21 49 22 63 1 15 3 11 5 -12
3 -23 -2 -46 -13 -62z m-323 -87 c6 -13 8 -38 5 -61 -5 -29 -3 -40 9 -44 24
-9 18 -24 -10 -24 -24 0 -25 3 -25 59 0 33 -4 63 -10 66 -15 9 -12 25 5 25 8
0 19 -10 26 -21z m329 -34 c5 -6 5 -17 0 -25 -5 -8 -5 -22 1 -32 11 -20 3 -42
-12 -33 -5 4 -9 17 -9 31 0 13 -6 34 -12 45 -10 17 -10 23 0 26 6 3 13 14 13
26 2 19 2 19 6 -3 3 -14 9 -30 13 -35z m760 -25 c0 -36 -23 -80 -41 -80 -5 0
-2 14 7 32 11 21 15 46 11 75 -4 38 -3 41 9 26 7 -10 14 -34 14 -53z m-1404
29 c3 -6 1 -16 -5 -22 -15 -15 -14 -33 5 -52 18 -18 13 -30 -10 -22 -17 7 -40
82 -31 97 8 13 32 13 41 -1z m226 -6 c22 -20 24 -76 3 -93 -8 -7 -25 -10 -40
-6 -32 8 -33 39 -2 61 15 12 18 19 10 22 -16 6 -17 33 -1 33 6 0 20 -7 30 -17z
m219 -4 c23 -26 18 -35 -21 -42 -39 -8 -39 -27 1 -27 33 0 32 -14 -1 -23 -25
-6 -60 27 -60 57 0 24 28 56 48 56 8 0 23 -10 33 -21z m109 11 c0 -5 -9 -14
-20 -20 -11 -6 -20 -21 -20 -33 0 -12 -5 -29 -10 -37 -7 -11 -10 0 -10 37 0
32 5 53 13 56 21 9 47 7 47 -3z m202 -2 c20 -17 30 -59 18 -78 -7 -11 -10 -7
-10 16 0 31 -21 60 -33 47 -4 -3 -7 -21 -7 -40 0 -47 -17 -41 -22 8 -3 29 1
43 12 49 20 12 24 12 42 -2z m122 -3 c20 -15 15 -47 -6 -44 -27 3 -38 -2 -38
-16 0 -9 9 -15 25 -15 14 0 25 -4 25 -10 0 -14 -54 -12 -68 2 -18 18 -15 69 6
84 22 17 32 17 56 -1z m108 -7 c20 -20 20 -22 3 -35 -11 -7 -25 -13 -32 -13
-7 0 -13 -4 -13 -10 0 -5 11 -10 25 -10 14 0 25 -4 25 -10 0 -14 -54 -12 -68
2 -17 17 -15 58 5 80 21 23 28 23 55 -4z m98 12 c0 -5 -7 -10 -15 -10 -22 0
-18 -12 12 -36 24 -19 26 -24 14 -38 -15 -18 -51 -22 -51 -6 0 6 7 10 15 10
23 0 18 15 -10 30 -29 16 -31 28 -7 46 20 16 42 18 42 4z m-1196 -12 c3 -7 7
-30 10 -51 4 -31 2 -38 -10 -35 -11 2 -17 17 -19 51 -2 43 10 65 19 35z m1402
-49 c8 -36 8 -49 0 -46 -12 4 -24 40 -25 81 -1 42 12 23 25 -35z m204 51 c0
-5 -5 -10 -11 -10 -5 0 -7 5 -4 10 3 6 8 10 11 10 2 0 4 -4 4 -10z m-1390 -71
c0 -5 -7 -9 -15 -9 -8 0 -15 7 -15 15 0 9 6 12 15 9 8 -4 15 -10 15 -15z
m1077 5 c-3 -3 -12 -4 -19 -1 -8 3 -5 6 6 6 11 1 17 -2 13 -5z m313 -19 c0 -8
-4 -15 -10 -15 -5 0 -10 7 -10 15 0 8 5 15 10 15 6 0 10 -7 10 -15z m-1829
-112 l-5 -28 -4 25 c-2 14 -9 31 -15 39 -10 12 -9 12 9 3 17 -9 20 -17 15 -39z
m24 -43 c3 -6 -1 -13 -10 -16 -10 -4 -15 -14 -12 -25 6 -23 -17 -57 -27 -41
-4 7 -3 12 2 12 5 0 12 18 16 40 6 39 18 51 31 30z m2182 -32 c-3 -7 -5 -2 -5
12 0 14 2 19 5 13 2 -7 2 -19 0 -25z m-1240 -120 c-3 -8 -6 -5 -6 6 -1 11 2
17 5 13 3 -3 4 -12 1 -19z m1204 8 c-18 -21 -25 -109 -12 -134 7 -13 8 -22 2
-22 -14 0 -24 39 -24 93 1 46 15 77 35 77 6 0 6 -6 -1 -14z m-2504 -33 c-3
-10 -5 -4 -5 12 0 17 2 24 5 18 2 -7 2 -21 0 -30z m2293 -39 c0 -16 -6 -38
-12 -47 -11 -14 -13 -6 -13 52 0 60 2 67 12 48 7 -12 12 -36 13 -53z m-1737
24 c-2 -5 -11 -8 -19 -8 -17 0 -18 22 -2 38 10 10 14 9 19 -5 4 -10 5 -21 2
-25z m1049 14 c-7 -2 -13 -16 -13 -30 -1 -20 -3 -22 -6 -8 -6 22 19 75 26 55
2 -7 -1 -15 -7 -17z m-592 -24 c0 -29 -1 -30 -14 -13 -13 18 -15 18 -40 2 -14
-10 -26 -24 -26 -32 0 -8 -4 -15 -10 -15 -15 0 -12 49 4 65 7 7 28 15 47 18
19 2 35 5 37 5 1 1 2 -12 2 -30z m410 22 c10 -6 11 -10 3 -10 -16 0 -18 -76
-3 -83 6 -3 5 -4 -2 -3 -7 1 -14 18 -16 37 -2 19 -8 39 -13 45 -17 20 6 30 31
14z m83 -21 c-5 -19 -7 -19 -15 -5 -10 18 -2 39 12 31 4 -3 6 -15 3 -26z m233
10 c-32 -9 -42 -6 -32 9 3 5 18 7 33 4 l28 -5 -29 -8z m-1496 4 c0 -5 -14 -8
-30 -9 -17 -1 -30 3 -30 7 0 5 14 9 30 9 17 0 30 -3 30 -7z m74 -7 c-6 -16 11
-30 26 -21 8 5 7 11 -1 21 -15 19 -2 18 17 -1 21 -20 9 -35 -27 -35 -26 0 -29
-3 -24 -20 8 -26 -1 -26 -16 1 -8 16 -8 27 2 45 13 26 32 33 23 10z m134 7
c-10 -2 -21 -17 -24 -31 -10 -46 -12 -48 -13 -11 -1 41 4 49 33 48 17 -1 18
-2 4 -6z m209 1 c-3 -3 -12 -4 -19 -1 -8 3 -5 6 6 6 11 1 17 -2 13 -5z m96
-14 c-3 -11 -9 -17 -14 -15 -10 7 -1 35 11 35 5 0 6 -9 3 -20z m142 11 c-7
-12 -65 -11 -65 1 0 4 16 8 36 8 19 0 33 -4 29 -9z m215 -6 c10 -12 10 -19 2
-27 -9 -9 -12 -7 -12 10 0 40 -28 24 -36 -20 l-7 -43 -9 33 c-14 53 30 86 62
47z m437 3 c5 -7 6 -26 2 -43 l-7 -30 -1 31 c0 16 -6 35 -13 42 -8 8 -8 12 -1
12 6 0 15 -6 20 -12z m280 -3 c-8 -19 11 -31 26 -16 15 15 27 14 27 -4 0 -10
-10 -15 -28 -15 -15 0 -33 -5 -40 -12 -17 -17 -16 28 1 47 16 18 21 19 14 0z
m136 8 c-7 -2 -19 -2 -25 0 -7 3 -2 5 12 5 14 0 19 -2 13 -5z m115 -13 c-10
-16 -10 -24 0 -40 7 -12 8 -20 2 -20 -5 0 -10 5 -10 10 0 6 -9 10 -20 10 -13
0 -20 7 -20 20 0 13 7 20 20 20 11 0 20 5 20 10 0 6 5 10 10 10 6 0 5 -8 -2
-20z m-2280 -7 c-2 -10 3 -23 12 -30 12 -10 10 -12 -17 -10 -28 2 -32 5 -27
22 6 17 21 34 32 35 2 0 2 -8 0 -17z m445 -59 c-10 -7 -25 -14 -35 -14 -9 0
-19 -6 -21 -12 -3 -7 -6 2 -6 20 -1 36 1 38 23 16 14 -14 18 -14 31 0 8 8 16
25 16 38 2 19 3 18 6 -5 3 -20 -1 -33 -14 -43z m987 31 c0 -19 -4 -35 -10 -35
-5 0 -10 9 -10 20 0 25 -37 27 -43 3 -3 -14 -4 -13 -3 2 1 13 9 21 24 23 12 2
22 8 22 13 0 5 5 9 10 9 6 0 10 -16 10 -35z m537 -12 c-3 -10 -5 -2 -5 17 0
19 2 27 5 18 2 -10 2 -26 0 -35z m166 -13 c11 -13 10 -13 -5 -1 -10 7 -17 25
-17 40 l2 26 4 -25 c3 -14 10 -32 16 -40z m-1909 41 c3 -5 -1 -11 -9 -15 -9
-3 -15 -18 -15 -36 0 -21 -5 -30 -16 -30 -12 0 -14 3 -6 13 5 6 13 27 17 45 6
31 18 41 29 23z m323 -57 c-3 -3 -12 -4 -19 -1 -8 3 -5 6 6 6 11 1 17 -2 13
-5z m310 0 c-3 -3 -12 -4 -19 -1 -8 3 -5 6 6 6 11 1 17 -2 13 -5z m446 -1 c-7
-2 -19 -2 -25 0 -7 3 -2 5 12 5 14 0 19 -2 13 -5z m544 1 c-3 -3 -12 -4 -19
-1 -8 3 -5 6 6 6 11 1 17 -2 13 -5z m-1853 -100 c12 -5 13 -9 3 -25 -15 -24
-23 -24 -30 0 -7 28 1 35 27 25z m-420 -11 c-12 -2 -27 -15 -34 -28 -12 -22
-11 -28 5 -45 10 -11 15 -23 11 -28 -10 -10 -36 27 -36 52 0 27 29 56 54 55
l21 -2 -21 -4z m70 -28 c-4 -8 -8 -15 -10 -15 -2 0 -4 7 -4 15 0 8 4 15 10 15
5 0 7 -7 4 -15z m62 -39 c-3 -14 -11 -26 -16 -26 -6 0 -5 8 2 20 10 15 10 22
0 32 -6 6 -12 17 -12 22 0 6 7 3 16 -6 11 -11 14 -25 10 -42z m46 14 c-2 -22
-6 -40 -8 -40 -2 0 -4 18 -4 40 0 22 3 40 8 40 4 0 6 -18 4 -40z m155 -32 c-4
-9 -6 -8 -6 2 -1 8 -11 20 -23 25 -13 6 -24 18 -26 27 -2 13 5 9 28 -12 18
-16 29 -35 27 -42z m553 51 c0 -14 -17 -10 -23 5 -4 10 -1 13 9 9 7 -3 14 -9
14 -14z m42 -4 c-2 -14 1 -32 8 -41 11 -12 10 -18 -3 -32 -16 -15 -17 -12 -17
41 0 31 4 57 9 57 4 0 6 -11 3 -25z m136 13 c-9 -7 -19 -26 -21 -43 -3 -24 -4
-21 -6 13 -1 37 2 42 21 42 19 0 20 -1 6 -12z m129 -25 c-3 -10 -5 -4 -5 12 0
17 2 24 5 18 2 -7 2 -21 0 -30z m68 -7 c0 -37 -1 -41 -12 -27 -16 21 -16 44
-1 59 7 7 12 12 13 12 0 0 0 -20 0 -44z m209 29 c-4 -8 -8 -15 -10 -15 -2 0
-4 7 -4 15 0 8 4 15 10 15 5 0 7 -7 4 -15z m-804 -10 c0 -8 -4 -15 -10 -15 -5
0 -7 7 -4 15 4 8 8 15 10 15 2 0 4 -7 4 -15z m151 -28 c-8 -8 -11 -5 -11 9 0
27 14 41 18 19 2 -9 -1 -22 -7 -28z m546 4 c-3 -38 -17 -29 -17 10 0 17 4 28
10 24 5 -3 8 -19 7 -34z m1184 -8 c-9 -15 -10 -12 -10 17 0 29 1 32 10 18 7
-12 7 -24 0 -35z m-1932 6 c-22 -14 -29 -11 -29 11 0 18 3 19 21 9 17 -9 19
-13 8 -20z m378 -1 c-3 -7 -5 -2 -5 12 0 14 2 19 5 13 2 -7 2 -19 0 -25z m155
-3 c3 -14 2 -25 -2 -25 -9 0 -20 25 -20 46 0 23 17 7 22 -21z m-730 0 c4 -17
1 -25 -8 -25 -14 0 -19 31 -7 43 9 10 10 9 15 -18z m328 -11 c0 -19 -16 -18
-24 2 -11 27 -7 37 9 24 8 -7 15 -19 15 -26z m760 20 c0 -2 -7 -4 -15 -4 -8 0
-15 4 -15 10 0 5 7 7 15 4 8 -4 15 -8 15 -10z m-1420 -38 c0 -3 -7 -3 -15 0
-8 4 -15 13 -15 21 0 12 2 12 15 -1 8 -8 15 -17 15 -20z m2237 12 c-3 -8 -6
-5 -6 6 -1 11 2 17 5 13 3 -3 4 -12 1 -19z m-185 -147 c-8 -49 -28 -56 -24 -9
2 29 20 63 28 55 2 -2 0 -22 -4 -46z m-325 17 c-3 -8 -6 -5 -6 6 -1 11 2 17 5
13 3 -3 4 -12 1 -19z m123 12 c0 -5 -5 -21 -12 -35 -8 -19 -8 -31 1 -51 15
-33 5 -46 -15 -20 -16 23 -18 69 -4 97 11 20 30 26 30 9z m-2157 -20 c3 -11 1
-23 -4 -26 -5 -3 -9 6 -9 20 0 31 6 34 13 6z m1727 1 c0 -3 -4 -13 -9 -21 -7
-10 -4 -18 10 -28 24 -17 24 -29 -1 -42 -14 -7 -26 -8 -38 -1 -15 9 -14 10 6
11 27 0 28 8 1 36 -17 18 -19 26 -10 43 10 18 41 20 41 2z m515 -108 l-16 -28
6 35 c3 19 8 55 13 80 l7 45 3 -52 c2 -34 -2 -62 -13 -80z m-2139 90 c-10 -10
-19 5 -10 18 6 11 8 11 12 0 2 -7 1 -15 -2 -18z m1750 3 c10 -39 1 -70 -21
-74 -11 -2 -26 -11 -32 -20 -14 -17 -13 -21 -18 53 -4 51 4 65 35 65 23 0 31
-6 36 -24z m98 9 c3 -10 -1 -15 -14 -15 -23 0 -36 -36 -20 -55 10 -12 9 -15
-3 -15 -18 0 -29 57 -15 83 11 21 44 23 52 2z m-2050 -36 c-7 -13 -24 7 -24
29 0 10 4 10 16 -2 8 -9 12 -21 8 -27z m2129 -21 c9 -27 12 -48 7 -48 -10 0
-30 55 -30 83 0 27 4 21 23 -35z m-875 6 c145 -29 253 -86 344 -182 60 -62
119 -160 81 -132 -174 127 -281 174 -471 210 -93 17 -321 15 -427 -4 -180 -32
-384 -95 -470 -145 -16 -10 -46 -24 -65 -31 -19 -8 -37 -17 -40 -21 -3 -3 -16
-10 -30 -14 -20 -6 -15 2 25 40 164 153 429 262 715 295 93 11 242 4 338 -16z
m-1162 -31 c-11 -11 -17 4 -9 23 7 18 8 18 11 1 2 -10 1 -21 -2 -24z m114 8
c0 -11 -4 -23 -10 -26 -6 -4 -10 5 -10 19 0 14 5 26 10 26 6 0 10 -9 10 -19z
m2274 -50 c-8 -10 -32 22 -27 35 4 12 8 10 18 -8 6 -13 10 -25 9 -27z m-2494
29 c0 -5 -5 -10 -11 -10 -5 0 -7 5 -4 10 3 6 8 10 11 10 2 0 4 -4 4 -10z
m2600 -105 c-12 -15 -10 -78 5 -122 4 -13 3 -23 -2 -23 -11 0 -33 58 -33 88 0
27 20 72 33 72 5 0 4 -7 -3 -15z m974 -7 c-4 -13 -7 -50 -7 -83 0 -33 -2 -46
-4 -30 -3 17 -10 36 -16 44 -9 11 -9 15 1 18 6 3 12 20 12 39 0 19 5 34 11 34
6 0 8 -9 3 -22z m-1201 -35 c-4 -10 -9 -11 -16 -4 -5 5 -7 18 -3 28 6 14 9 15
16 4 4 -8 6 -21 3 -28z m981 21 c7 -17 -3 -92 -13 -98 -3 -2 -6 22 -6 55 0 58
7 74 19 43z m-229 -14 c-3 -5 -10 -10 -16 -10 -5 0 -9 5 -9 10 0 6 7 10 16 10
8 0 12 -4 9 -10z m135 0 c0 -5 -2 -10 -4 -10 -3 0 -8 5 -11 10 -3 6 -1 10 4
10 6 0 11 -4 11 -10z m-53 -52 c-2 -13 -4 -5 -4 17 -1 22 1 32 4 23 2 -10 2
-28 0 -40z m-486 29 c-1 -12 -15 -9 -19 4 -3 6 1 10 8 8 6 -3 11 -8 11 -12z
m162 -7 c3 -11 1 -23 -4 -26 -5 -3 -9 6 -9 20 0 31 6 34 13 6z m127 5 c0 -8
-4 -15 -10 -15 -5 0 -10 7 -10 15 0 8 5 15 10 15 6 0 10 -7 10 -15z m267 -17
c-3 -8 -6 -5 -6 6 -1 11 2 17 5 13 3 -3 4 -12 1 -19z m-792 -41 c16 -5 15 -5
-4 -4 -14 1 -26 9 -28 17 -3 10 -2 11 4 4 4 -7 17 -14 28 -17z m225 -3 c0 -2
-9 -4 -20 -4 -11 0 -20 4 -20 9 0 5 9 7 20 4 11 -3 20 -7 20 -9z m537 0 c-3
-3 -12 -4 -19 -1 -8 3 -5 6 6 6 11 1 17 -2 13 -5z m-2404 -84 c3 -11 12 -20
21 -20 18 0 21 -15 6 -25 -14 -9 -59 36 -53 52 8 19 20 16 26 -7z m65 -42 c-1
-40 -3 -50 -5 -28 -3 19 -9 39 -14 45 -14 14 -11 45 6 45 12 0 15 -13 13 -62z
m384 -13 l-6 -50 -7 49 c-8 51 -3 74 11 59 5 -4 6 -30 2 -58z m-1115 -2 c-3
-10 -5 -2 -5 17 0 19 2 27 5 18 2 -10 2 -26 0 -35z m1348 37 c3 -5 1 -10 -4
-10 -6 0 -12 -17 -12 -37 l-1 -38 -8 40 c-4 22 -6 43 -3 48 6 10 21 9 28 -3z
m-1111 -7 c-5 -5 -12 -12 -16 -18 -4 -6 -8 -2 -8 8 0 9 7 17 17 17 9 0 12 -3
7 -7z m228 -33 c-5 -48 -21 -54 -20 -7 1 34 5 47 16 47 4 0 6 -18 4 -40z m308
-1 c0 -24 -4 -38 -10 -34 -17 10 -11 75 7 75 2 0 3 -18 3 -41z m70 -6 c0 -7
-4 -13 -9 -13 -5 0 -11 -8 -13 -17 -2 -10 -4 3 -4 28 1 38 3 43 13 30 7 -9 13
-22 13 -28z m42 22 c-7 -37 -22 -41 -22 -6 0 20 5 31 14 31 9 0 12 -8 8 -25z
m45 -37 c-2 -13 -4 -3 -4 22 0 25 2 35 4 23 2 -13 2 -33 0 -45z m93 24 c0 -21
4 -42 10 -47 6 -6 0 -10 -15 -10 -17 0 -21 3 -13 12 6 7 8 29 6 48 -2 19 0 35
4 35 4 0 8 -17 8 -38z m183 23 c-3 -9 -8 -14 -10 -11 -3 3 -2 9 2 15 9 16 15
13 8 -4z m61 -10 c4 -14 2 -33 -4 -43 -10 -14 -11 -13 -6 7 3 13 1 33 -5 43
-6 10 -6 18 0 18 5 0 12 -11 15 -25z m1578 -17 c-13 -13 -26 8 -17 30 6 16 7
16 17 -1 7 -13 7 -22 0 -29z m555 -29 c-2 -61 -17 -65 -17 -4 0 25 -5 45 -11
45 -5 0 -8 4 -4 10 3 5 12 7 20 4 9 -4 13 -21 12 -55z m-3770 29 c-3 -8 -6 -5
-6 6 -1 11 2 17 5 13 3 -3 4 -12 1 -19z m553 -13 c0 -27 -3 -33 -15 -29 -11 5
-13 10 -5 19 8 9 6 15 -7 20 -17 7 -17 8 2 15 11 5 21 9 23 9 1 1 2 -15 2 -34z
m220 5 c0 -20 -5 -30 -15 -30 -8 0 -12 6 -9 14 3 8 1 17 -4 20 -15 9 -40 -3
-45 -22 -3 -12 -5 -10 -6 5 -1 17 7 25 32 32 47 14 47 14 47 -19z m190 -24
c-11 -29 -30 -27 -30 4 0 13 5 17 15 14 11 -4 15 1 16 17 1 14 3 18 6 8 2 -8
-1 -28 -7 -43z m613 14 c3 -11 1 -20 -4 -20 -5 0 -9 9 -9 20 0 11 2 20 4 20 2
0 6 -9 9 -20z m1535 -11 c14 0 13 -2 -3 -9 -30 -13 -35 -12 -35 8 0 25 14 38
18 18 2 -9 11 -16 20 -17z m-2631 -1 c-3 -8 -6 -5 -6 6 -1 11 2 17 5 13 3 -3
4 -12 1 -19z m1238 -182 c0 -68 -2 -80 -12 -67 -16 21 -16 106 -1 131 7 11 13
20 13 20 0 0 0 -38 0 -84z m135 9 l0 -75 -35 0 c-29 0 -36 4 -41 25 -10 39 3
74 31 81 13 3 27 15 30 25 11 34 15 20 15 -56z m-600 5 c0 -58 1 -60 33 -69
l32 -10 -40 2 -40 2 -3 68 c-2 42 1 67 8 67 6 0 10 -25 10 -60z m1020 -29 c-1
-35 -24 -80 -36 -69 -3 4 0 16 6 29 8 14 10 43 7 77 -6 53 -5 54 9 28 7 -16
14 -45 14 -65z m202 24 c-2 -42 1 -71 8 -80 9 -11 9 -15 1 -15 -6 0 -16 12
-22 28 -6 15 -15 35 -20 44 -5 10 -5 19 0 23 5 3 12 19 16 35 11 52 20 33 17
-35z m-412 24 c0 -4 -7 -9 -15 -13 -21 -8 -19 -56 3 -72 14 -11 15 -13 2 -14
-25 0 -40 21 -40 57 0 18 -5 33 -12 33 -6 0 -4 8 6 19 15 16 21 18 37 8 10 -6
19 -15 19 -18z m-2514 10 c7 -12 -15 -31 -28 -23 -9 6 1 34 12 34 5 0 12 -5
16 -11z m993 -13 c7 -8 11 -32 9 -53 -2 -31 -7 -39 -26 -41 -13 -2 -26 -10
-29 -18 -12 -32 -23 -10 -23 46 0 46 4 61 18 69 24 14 38 13 51 -3z m121 6 c0
-4 -10 -12 -22 -17 -14 -6 -26 -22 -29 -40 -6 -25 -7 -27 -9 -7 -7 49 -4 56
20 63 35 10 40 10 40 1z m88 -8 c40 -28 21 -101 -25 -92 -9 2 -24 15 -32 29
-13 24 -13 29 2 53 20 30 25 31 55 10z m225 -4 c25 -30 21 -40 -18 -40 -19 0
-35 -4 -35 -8 0 -15 22 -30 36 -25 8 3 14 0 14 -6 0 -17 -31 -13 -52 6 -22 20
-23 51 -1 75 21 23 34 23 56 -2z m97 10 c12 -8 11 -10 -7 -10 -30 0 -29 -14 3
-37 32 -23 24 -53 -15 -52 l-26 0 25 10 25 10 -27 23 c-31 24 -34 36 -16 54
14 14 19 15 38 2z m340 -12 c25 -27 25 -39 2 -68 -14 -18 -25 -22 -45 -16 -23
5 -27 12 -27 44 0 61 33 80 70 40z m111 1 c14 -27 6 -109 -12 -120 -8 -5 -21
-9 -29 -9 -11 1 -10 4 4 15 11 8 18 16 15 17 -2 2 -13 8 -24 14 -23 13 -32 68
-14 90 17 21 47 17 60 -7z m94 11 c3 -5 -3 -10 -14 -10 -29 0 -26 -14 4 -30
37 -20 30 -54 -10 -57 -20 -1 -23 0 -7 4 29 6 28 19 -5 49 -27 23 -28 24 -9
39 23 18 33 19 41 5z m340 -13 c10 -16 13 -35 9 -55 -6 -28 -10 -32 -40 -32
-25 0 -34 5 -40 22 -7 22 16 48 43 48 7 0 13 5 13 10 0 6 -12 10 -26 10 -14 0
-23 4 -19 10 11 18 44 11 60 -13z m213 11 c7 -7 12 -31 12 -55 0 -42 -1 -43
-34 -43 -47 0 -64 22 -37 49 12 12 26 21 31 21 6 0 10 5 10 10 0 6 -9 10 -20
10 -11 0 -20 5 -20 10 0 14 43 13 58 -2z m-2201 -4 c-3 -3 -12 -4 -19 -1 -8 3
-5 6 6 6 11 1 17 -2 13 -5z m885 -1 c-49 -10 -47 -76 3 -86 16 -3 15 -5 -5 -6
-33 -1 -50 16 -50 49 0 33 17 50 50 49 23 -2 23 -2 2 -6z m311 0 c-30 -6 -29
-16 2 -33 33 -17 31 -54 -3 -56 -18 -1 -19 -1 -2 3 27 6 25 18 -7 41 -31 23
-26 53 9 51 l23 -2 -22 -4z m-1436 -35 c-3 -7 -5 -2 -5 12 0 14 2 19 5 13 2
-7 2 -19 0 -25z m600 -15 c-3 -10 -5 -4 -5 12 0 17 2 24 5 18 2 -7 2 -21 0
-30z m-180 -5 c-3 -7 -5 -2 -5 12 0 14 2 19 5 13 2 -7 2 -19 0 -25z m-620 -10
c-3 -7 -5 -2 -5 12 0 14 2 19 5 13 2 -7 2 -19 0 -25z m1868 -138 c-27 -5 -30
-9 -33 -47 -3 -38 -1 -43 22 -49 14 -3 26 -10 26 -14 0 -16 -28 -18 -49 -4
-31 22 -30 106 1 128 17 12 25 13 42 3 20 -11 20 -11 -9 -17z m1619 14 c3 -9
6 -38 6 -65 0 -28 5 -49 11 -49 5 0 7 -5 4 -10 -14 -23 -35 13 -35 61 0 26 -4
51 -10 54 -15 9 -12 25 4 25 8 0 17 -7 20 -16z m219 -24 c16 -42 9 -102 -14
-116 -8 -4 -9 1 -4 16 12 36 9 108 -5 125 -7 8 -8 15 -3 15 6 0 17 -18 26 -40z
m-883 1 c3 1 15 -3 28 -10 17 -9 22 -20 22 -51 0 -51 -18 -52 -22 -2 -4 51
-32 51 -36 -1 -5 -55 -22 -34 -22 27 0 54 10 80 20 51 3 -9 8 -15 10 -14z
m806 -98 c-2 -3 -19 -6 -37 -6 -28 -2 -35 3 -43 26 -12 33 -1 56 33 73 13 7
28 17 34 23 9 9 13 -3 15 -50 2 -34 1 -63 -2 -66z m-1331 75 c-19 -11 -20 -57
0 -64 8 -4 13 -10 10 -15 -12 -18 -35 5 -35 35 0 18 -5 37 -12 44 -8 8 -8 15
2 27 12 14 15 14 32 -2 16 -15 17 -18 3 -25z m435 27 c10 -12 10 -19 2 -27
-18 -18 -14 -59 6 -74 14 -11 15 -13 2 -14 -23 0 -40 21 -40 50 0 14 -5 31
-12 38 -8 8 -8 15 2 27 7 8 16 15 20 15 4 0 13 -7 20 -15z m550 -15 c10 -5 15
-23 16 -51 1 -37 1 -38 -3 -7 -5 45 -30 58 -43 22 -6 -14 -10 -32 -10 -40 0
-8 -4 -12 -10 -9 -5 3 -10 31 -10 61 0 53 0 54 23 43 12 -7 29 -15 37 -19z
m-1946 -5 c24 -19 14 -45 -19 -45 -14 0 -25 -4 -25 -9 0 -13 26 -32 33 -24 4
3 7 1 7 -5 0 -17 -31 -15 -52 5 -22 20 -23 51 -1 75 19 21 32 22 57 3z m120 6
c3 -5 -5 -12 -19 -15 -21 -5 -25 -12 -25 -41 0 -19 -4 -35 -10 -35 -5 0 -10
20 -10 44 0 34 4 46 18 49 29 8 41 7 46 -2z m210 -10 c24 -26 17 -62 -16 -80
-35 -20 -58 -2 -58 45 0 50 42 70 74 35z m116 10 c0 -5 -9 -13 -20 -16 -15 -5
-20 -15 -20 -41 0 -19 -4 -34 -10 -34 -5 0 -10 20 -10 44 0 46 -1 45 53 55 4
0 7 -3 7 -8z m210 -11 c25 -25 25 -41 0 -68 -22 -23 -29 -26 -54 -16 -20 8
-23 90 -3 97 23 10 37 7 57 -13z m214 4 c18 -17 22 -69 6 -79 -6 -4 -10 8 -10
28 0 18 -3 36 -6 40 -13 13 -34 -7 -34 -33 0 -16 -4 -32 -10 -35 -6 -4 -10 11
-10 39 0 38 3 45 23 49 12 2 23 5 24 6 1 0 9 -6 17 -15z m747 -13 c-12 -12
-21 -30 -21 -41 0 -11 -5 -20 -11 -20 -6 0 -9 16 -7 37 2 30 8 38 28 43 34 9
35 5 11 -19z m122 11 c20 -21 10 -39 -23 -43 -29 -5 -29 -16 0 -25 26 -7 26
-24 1 -24 -64 0 -68 108 -5 110 6 0 18 -8 27 -18z m101 9 c3 -5 -4 -11 -15
-14 -22 -6 -18 -27 6 -27 18 0 28 -30 14 -46 -13 -16 -49 -19 -49 -4 0 5 7 7
15 4 10 -4 15 0 15 15 0 12 -6 21 -15 21 -9 0 -18 7 -21 15 -11 28 35 61 50
36z m224 -3 c7 -7 12 -26 12 -44 0 -58 -51 -73 -79 -23 -13 24 -13 29 2 53 19
28 45 34 65 14z m-2384 -14 c3 -9 6 -29 6 -45 0 -22 -5 -30 -26 -35 -17 -4
-31 -1 -41 9 -20 20 -10 47 18 47 16 0 20 5 16 20 -6 24 18 28 27 4z m64 2
c-2 -7 8 -23 22 -35 24 -21 25 -21 6 -36 -23 -17 -36 -19 -36 -5 0 6 5 9 12 8
6 -2 14 5 16 15 2 10 -2 17 -10 17 -20 0 -37 20 -31 36 7 18 25 18 21 0z m465
2 c-16 -8 -23 -20 -23 -39 0 -15 -4 -31 -10 -34 -6 -4 -10 12 -10 39 0 45 0
46 33 45 30 0 31 -1 10 -11z m507 -29 c0 -33 3 -40 18 -37 12 2 19 16 22 43 4
30 7 35 13 22 12 -31 8 -77 -8 -83 -8 -4 -26 -3 -40 0 -22 6 -25 12 -25 51 0
25 5 45 10 45 6 0 10 -18 10 -41z m458 25 c46 -22 46 -29 2 -47 -22 -8 -42
-12 -45 -7 -3 5 4 11 15 15 23 7 27 35 5 35 -8 0 -15 5 -15 10 0 13 1 13 38
-6z m1299 -6 c-3 -8 -6 -5 -6 6 -1 11 2 17 5 13 3 -3 4 -12 1 -19z m-3390 -35
c-3 -10 -5 -4 -5 12 0 17 2 24 5 18 2 -7 2 -21 0 -30z m90 15 c-3 -8 -6 -5 -6
6 -1 11 2 17 5 13 3 -3 4 -12 1 -19z m698 -38 c3 -5 -1 -10 -9 -10 -9 0 -16 5
-16 10 0 6 4 10 9 10 6 0 13 -4 16 -10z m2615 -4 c0 -8 -4 -17 -9 -21 -12 -7
-24 12 -16 25 9 15 25 12 25 -4z m-1873 -118 c-3 -8 -6 -5 -6 6 -1 11 2 17 5
13 3 -3 4 -12 1 -19z m-1037 -58 l0 -70 -33 0 c-27 0 -36 6 -46 27 -16 34 2
83 31 83 10 0 21 7 24 15 14 35 24 10 24 -55z m191 43 c11 -13 11 -17 2 -20
-18 -6 -16 -49 3 -68 20 -20 10 -33 -14 -19 -9 6 -18 26 -20 45 -2 19 -8 39
-13 45 -5 6 -4 15 3 22 16 16 23 15 39 -5z m-881 -7 c0 -11 -19 -15 -25 -6 -3
5 1 10 9 10 9 0 16 -2 16 -4z m789 -10 c7 -8 11 -32 9 -53 -3 -34 -6 -38 -33
-41 -54 -7 -69 49 -18 69 13 5 22 13 18 19 -3 5 -12 7 -20 3 -8 -3 -15 0 -15
6 0 16 45 14 59 -3z m220 0 c7 -8 11 -32 9 -53 -3 -34 -6 -38 -34 -41 -57 -6
-72 48 -19 68 15 6 23 15 20 20 -4 6 -10 8 -15 5 -5 -3 -11 -1 -15 5 -10 16
41 12 54 -4z m191 3 l-24 -10 29 -24 c25 -20 28 -27 19 -42 -12 -20 -54 -31
-54 -14 0 6 10 11 22 11 21 0 21 1 -6 29 -34 36 -29 61 11 60 l28 0 -25 -10z
m130 1 c0 -5 -6 -7 -14 -4 -8 3 -17 0 -21 -6 -4 -7 1 -14 13 -17 24 -6 33 -33
20 -57 -10 -18 -43 -22 -53 -6 -4 6 5 10 19 10 16 0 26 6 26 15 0 9 -9 15 -25
15 -25 0 -31 13 -19 44 7 17 54 23 54 6z m116 -14 c3 -13 4 -37 2 -52 -2 -23
-9 -30 -29 -32 -14 -2 -31 4 -38 12 -14 17 -7 51 8 41 6 -3 8 -12 4 -20 -3
-10 2 -15 16 -15 18 0 21 6 21 40 0 28 -4 40 -14 40 -8 0 -18 -4 -21 -10 -3
-5 -11 -10 -17 -10 -7 0 -6 6 2 15 20 24 59 19 66 -9z m206 7 c24 -21 23 -31
-4 -35 -26 -3 -38 -38 -14 -38 8 0 18 -4 21 -10 12 -19 -25 -10 -45 12 -22 24
-26 58 -8 76 16 16 28 15 50 -5z m95 -50 c-2 -16 -4 -5 -4 22 0 28 2 40 4 28
2 -13 2 -35 0 -50z m98 58 c3 -5 1 -12 -5 -16 -5 -3 -10 1 -10 9 0 18 6 21 15
7z m-1538 -68 c-2 -16 -4 -5 -4 22 0 28 2 40 4 28 2 -13 2 -35 0 -50z m1246
42 c-7 -21 -13 -19 -13 6 0 11 4 18 10 14 5 -3 7 -12 3 -20z m-1673 11 c0 -3
-4 -8 -10 -11 -5 -3 -10 -1 -10 4 0 6 5 11 10 11 6 0 10 -2 10 -4z m557 -48
c-2 -13 -4 -5 -4 17 -1 22 1 32 4 23 2 -10 2 -28 0 -40z m1081 16 c9 -6 13
-18 9 -28 -8 -21 -27 -21 -27 2 0 9 -3 28 -5 42 -3 14 -2 18 2 10 3 -8 13 -20
21 -26z m-418 -40 c0 -16 -16 -19 -25 -4 -8 13 4 32 16 25 5 -4 9 -13 9 -21z
m754 8 c2 -4 -2 -16 -10 -27 -13 -18 -14 -18 -14 8 0 25 13 36 24 19z m-127
-24 c-3 -8 -6 -5 -6 6 -1 11 2 17 5 13 3 -3 4 -12 1 -19z m-1285 -133 c-3 -44
-1 -69 8 -80 7 -8 8 -15 2 -15 -5 0 -17 16 -27 36 -16 34 -16 39 0 80 9 24 18
44 20 44 1 0 0 -29 -3 -65z m146 -16 c-3 -62 -4 -64 -31 -67 -74 -9 -78 85 -4
111 9 4 17 14 17 24 0 12 3 14 11 6 5 -5 9 -38 7 -74z m1071 67 c9 -11 5 -15
-19 -20 -30 -5 -31 -8 -28 -48 2 -36 7 -44 26 -46 29 -4 29 -22 -1 -22 -34 0
-47 19 -47 67 0 30 6 49 20 63 24 24 34 25 49 6z m1605 -23 c3 -21 6 -50 6
-65 0 -14 6 -28 13 -31 6 -2 9 -8 5 -12 -18 -19 -38 19 -38 71 0 30 -4 54 -10
54 -5 0 -10 5 -10 10 0 6 6 10 14 10 8 0 16 -15 20 -37z m142 -99 c-3 -8 -19
-14 -36 -14 -23 0 -33 6 -42 26 -15 32 6 77 39 82 11 2 25 13 29 25 6 16 9 4
11 -42 2 -35 2 -70 -1 -77z m-800 96 c9 0 22 -6 30 -14 16 -16 19 -86 4 -86
-5 0 -10 15 -10 34 0 20 -6 36 -14 39 -20 8 -26 -2 -26 -40 0 -18 -4 -33 -10
-33 -12 0 -14 113 -2 124 4 4 8 1 10 -8 2 -9 10 -16 18 -16z m432 0 c29 0 42
-21 41 -64 -2 -35 -3 -36 -6 -11 -10 63 -53 66 -53 4 0 -16 -4 -29 -10 -29 -6
0 -10 29 -10 68 1 50 3 63 11 50 5 -10 18 -18 27 -18z m440 5 c14 -31 15 -75
2 -95 -7 -11 -10 1 -10 41 0 30 -5 60 -12 67 -7 7 -8 12 -2 12 6 0 16 -11 22
-25z m227 -42 c0 -38 4 -76 9 -85 5 -12 4 -18 -3 -18 -6 0 -14 12 -17 28 -4
15 -13 36 -20 47 -10 16 -10 23 2 39 8 11 14 28 14 38 0 10 3 18 8 18 4 0 7
-30 7 -67z m-2915 26 c0 -4 -6 -12 -14 -18 -14 -12 -10 -61 5 -61 5 0 9 -4 9
-10 0 -17 -29 -11 -38 8 -31 60 -19 123 19 99 10 -6 19 -15 19 -18z m1300 0
c0 -4 -7 -12 -15 -19 -20 -17 -19 -47 2 -59 21 -11 11 -26 -12 -18 -8 4 -15
18 -15 32 0 15 -5 35 -11 46 -15 29 5 53 32 36 10 -6 19 -15 19 -18z m410 21
c0 -5 7 -10 17 -10 15 0 15 -1 0 -18 -20 -22 -22 -68 -4 -75 6 -2 9 -8 5 -12
-12 -13 -39 17 -36 40 1 12 -3 30 -11 39 -11 13 -11 19 -1 31 14 17 30 20 30
5z m-2836 -6 c22 -8 20 -21 -4 -34 -18 -9 -20 -8 -20 15 0 27 1 28 24 19z
m-106 -21 c-5 -25 -28 -28 -28 -4 0 12 6 21 16 21 9 0 14 -7 12 -17z m776 2
c-4 -8 -8 -15 -10 -15 -2 0 -4 7 -4 15 0 8 4 15 10 15 5 0 7 -7 4 -15z m356
-5 c6 -12 10 -35 8 -53 -3 -30 -5 -32 -43 -32 -34 0 -40 3 -43 22 -3 17 3 26
22 33 31 11 36 34 6 25 -15 -5 -18 -3 -14 9 9 23 51 20 64 -4z m208 8 c7 -7
12 -32 12 -56 l0 -43 -37 3 c-33 3 -38 6 -38 28 0 20 6 26 27 28 19 2 25 8 21
18 -3 9 -13 12 -24 9 -14 -5 -17 -2 -13 9 7 19 35 21 52 4z m215 -2 c26 -20
21 -44 -10 -48 -32 -4 -44 -28 -14 -28 12 0 21 -4 21 -10 0 -16 -32 -12 -52 7
-22 20 -23 51 -1 75 19 21 32 22 56 4z m105 -7 c-20 -14 -28 -30 -28 -50 0
-16 -4 -29 -10 -29 -5 0 -10 20 -10 44 0 47 0 46 65 54 6 1 -2 -8 -17 -19z
m132 13 c0 -4 -10 -12 -22 -17 -16 -7 -24 -20 -26 -42 -5 -49 -22 -40 -22 11
0 34 4 46 18 49 29 8 52 7 52 -1z m92 -9 c22 -20 23 -51 1 -75 -33 -37 -73
-16 -73 39 0 47 38 67 72 36z m118 3 c0 -7 -9 -16 -20 -19 -14 -4 -20 -14 -20
-35 0 -17 -4 -34 -10 -37 -6 -4 -10 13 -10 44 0 39 4 51 18 54 32 9 42 7 42
-7z m196 6 c6 -4 16 -17 23 -30 22 -42 -27 -90 -65 -64 -22 14 -26 52 -10 77
17 25 32 31 52 17z m234 -18 c13 -33 13 -74 0 -74 -5 0 -10 12 -10 28 0 53
-39 71 -41 19 0 -12 -4 -31 -9 -42 -6 -15 -9 -6 -9 32 -1 41 3 52 17 56 35 9
43 6 52 -19z m760 18 c0 -4 -9 -15 -20 -25 -11 -9 -20 -28 -20 -41 0 -14 -4
-28 -10 -31 -6 -4 -10 13 -10 44 0 51 -1 50 53 60 4 0 7 -2 7 -7z m105 -12
c20 -22 13 -36 -19 -42 -30 -5 -32 -28 -2 -28 14 0 26 -4 26 -10 0 -14 -54
-12 -68 2 -16 16 -15 65 1 83 17 20 41 18 62 -5z m105 10 c0 -5 -7 -10 -15
-10 -8 0 -15 -7 -15 -15 0 -8 7 -15 15 -15 21 0 30 -27 15 -45 -14 -17 -50
-20 -50 -5 0 6 7 10 15 10 21 0 19 13 -5 28 -23 14 -26 32 -8 50 15 15 48 16
48 2z m211 0 c23 -13 26 -71 5 -90 -43 -35 -94 26 -62 75 18 28 28 30 57 15z
m-1341 -46 c0 -22 5 -34 14 -34 15 0 26 21 26 51 0 10 5 19 11 19 6 0 9 -17 7
-42 -3 -42 -4 -43 -38 -43 -35 0 -35 0 -38 48 -2 33 0 47 7 42 6 -3 11 -22 11
-41z m468 26 c17 -11 32 -22 32 -25 0 -4 -67 -35 -76 -35 -2 0 -4 5 -4 10 0 6
7 10 15 10 22 0 18 28 -5 35 -11 4 -18 11 -15 16 9 13 16 11 53 -11z m-2545 3
c-7 -2 -13 -12 -13 -20 0 -9 -3 -14 -6 -10 -10 10 4 37 18 36 10 0 10 -2 1 -6z
m147 -75 c0 -5 -4 -8 -10 -8 -5 0 -10 10 -10 23 0 18 2 19 10 7 5 -8 10 -18
10 -22z m1085 12 c0 -7 -6 -15 -12 -17 -8 -3 -13 4 -13 17 0 13 5 20 13 18 6
-3 12 -11 12 -18z m550 -126 c-8 -16 -15 -41 -15 -56 0 -16 -4 -28 -10 -28 -5
0 -10 16 -10 35 0 19 5 35 10 35 6 0 10 6 10 13 0 13 21 39 27 33 2 -2 -3 -16
-12 -32z m-625 -49 c0 -61 -2 -65 -25 -71 -31 -8 -55 10 -55 41 0 39 11 55 37
55 16 0 27 7 30 20 9 35 13 22 13 -45z m98 6 c12 -36 17 -64 11 -72 -6 -10 -9
-10 -9 -2 0 7 -9 17 -19 23 -15 7 -23 6 -35 -6 -11 -10 -16 -11 -16 -3 0 22
33 119 41 119 4 0 16 -26 27 -59z m82 5 c0 -45 4 -58 22 -70 17 -12 18 -16 6
-16 -8 0 -20 6 -26 13 -12 14 -20 127 -9 127 4 0 7 -24 7 -54z m329 18 c-7 -9
-9 -31 -5 -61 6 -46 6 -47 -8 -23 -9 14 -15 33 -16 42 0 29 19 70 30 63 8 -5
7 -11 -1 -21z m-1746 1 c7 -17 -8 -29 -28 -21 -17 6 -9 36 10 36 7 0 15 -7 18
-15z m1115 -7 c7 -7 11 -30 10 -52 l-1 -41 -4 38 c-5 41 -24 57 -48 37 -12
-10 -15 -10 -15 3 0 13 10 19 41 26 3 0 10 -4 17 -11z m446 -8 c15 -15 -3 -40
-29 -40 -32 0 -34 -27 -2 -40 22 -10 22 -10 -3 -7 -14 1 -30 13 -39 28 -12 22
-12 28 4 52 17 27 44 30 69 7z m-1776 3 c-10 -2 -26 -2 -35 0 -10 3 -2 5 17 5
19 0 27 -2 18 -5z m131 -7 c13 -16 9 -20 -31 -30 -17 -4 -28 -13 -28 -23 0
-12 -3 -14 -11 -6 -6 6 -9 19 -7 29 2 14 11 18 33 16 29 -2 29 -2 11 13 -20
15 -19 15 1 15 11 0 26 -6 32 -14z m201 1 c-15 -7 -28 -25 -31 -42 -6 -27 -7
-25 -8 13 -1 41 0 42 32 42 l32 0 -25 -13z m758 6 c-24 -6 -23 -10 9 -37 24
-20 25 -26 14 -40 -15 -17 -51 -22 -51 -6 0 5 7 7 15 4 10 -4 15 0 15 14 0 11
-7 22 -15 26 -8 3 -15 15 -15 26 0 14 6 20 23 19 16 -1 18 -2 5 -6z m142 -19
c0 -14 -4 -23 -10 -19 -5 3 -7 12 -3 20 3 10 -1 15 -14 15 -29 0 -29 -68 0
-80 l22 -9 -22 0 c-14 -1 -29 9 -39 24 -24 37 -6 75 36 75 26 0 30 -4 30 -26z
m640 19 c-20 -8 -30 -24 -30 -50 0 -12 -4 -25 -10 -28 -6 -4 -10 12 -10 39 0
45 0 46 33 45 17 0 25 -3 17 -6z m296 -95 l-16 -22 0 21 c0 12 5 25 10 28 6 3
11 23 12 43 1 37 2 37 5 -5 3 -28 -1 -51 -11 -65z m114 98 c0 -3 -4 -8 -10
-11 -5 -3 -10 -1 -10 4 0 6 5 11 10 11 6 0 10 -2 10 -4z m-2073 -78 c-3 -7 -5
-2 -5 12 0 14 2 19 5 13 2 -7 2 -19 0 -25z m223 0 c0 -18 -2 -20 -9 -8 -6 8
-7 18 -5 22 9 14 14 9 14 -14z m1850 -12 c0 -14 -4 -28 -10 -31 -6 -4 -10 7
-10 24 0 17 5 31 10 31 6 0 10 -11 10 -24z m-2163 -2 c-3 -3 -12 -4 -19 -1 -8
3 -5 6 6 6 11 1 17 -2 13 -5z m642 -111 c0 -16 -3 -22 -6 -13 -3 8 -10 21 -16
28 -7 8 -5 12 7 12 11 0 16 -8 15 -27z m-959 -33 c0 -5 -4 -10 -10 -10 -5 0
-10 5 -10 10 0 6 5 10 10 10 6 0 10 -4 10 -10z m80 0 c0 -5 -8 -10 -17 -10
-15 0 -16 2 -3 10 19 12 20 12 20 0z m130 0 c0 -5 -10 -10 -22 -10 -19 0 -20
2 -8 10 19 13 30 13 30 0z m3685 0 c3 -5 -3 -10 -15 -10 -12 0 -18 5 -15 10 3
6 10 10 15 10 5 0 12 -4 15 -10z m-4145 -7 c0 -5 -4 -14 -9 -22 -8 -13 -12
-13 -26 -1 -16 13 -16 15 2 21 24 10 33 10 33 2z m587 -15 c-3 -8 -6 -5 -6 6
-1 11 2 17 5 13 3 -3 4 -12 1 -19z m638 -46 c-8 -19 -15 -36 -15 -38 0 -2 -7
-4 -16 -4 -12 0 -14 3 -6 13 6 7 14 33 18 57 6 38 8 41 20 25 11 -15 11 -24
-1 -53z m2708 61 c-7 -2 -19 -2 -25 0 -7 3 -2 5 12 5 14 0 19 -2 13 -5z m777
-33 c0 -22 -2 -40 -4 -40 -2 0 -6 18 -8 40 -2 22 0 40 4 40 5 0 8 -18 8 -40z
m-650 6 c0 -10 -7 -12 -21 -9 -15 4 -27 0 -35 -12 -8 -11 -14 -14 -14 -8 0 14
20 30 45 36 11 2 21 5 23 6 1 0 2 -5 2 -13z m-4107 -48 c-6 -11 -42 23 -36 34
2 4 12 0 23 -9 10 -9 17 -21 13 -25z m-57 -28 c8 0 14 -4 14 -10 0 -5 -4 -10
-8 -10 -12 0 -32 22 -31 35 0 5 3 4 6 -2 2 -7 11 -13 19 -13z m874 -69 c0 -11
5 -23 10 -26 6 -3 9 -23 8 -43 l-1 -37 -4 35 c-3 19 -8 39 -12 45 -14 18 -20
45 -11 45 6 0 10 -9 10 -19z m1087 -31 c14 0 18 -26 5 -34 -18 -11 -58 57 -45
77 5 8 11 2 17 -15 5 -16 16 -28 23 -28z m44 -17 l-4 -48 -8 35 c-5 19 -6 46
-3 59 9 40 20 7 15 -46z m719 33 c-12 -24 -10 -67 5 -111 l8 -20 -16 20 c-20
24 -22 110 -4 129 18 20 22 10 7 -18z m-537 -2 c3 -4 1 -16 -4 -27 -9 -16 -13
-17 -20 -6 -13 21 -11 39 4 39 8 0 17 -3 20 -6z m657 -71 c-7 -23 -8 -18 -8
27 0 45 1 50 8 28 5 -16 5 -40 0 -55z m-1313 30 c-3 -10 -5 -4 -5 12 0 17 2
24 5 18 2 -7 2 -21 0 -30z m243 23 c0 -24 -17 -28 -23 -6 -3 13 0 20 9 20 8 0
14 -6 14 -14z m304 -16 c6 0 17 5 24 12 9 9 12 8 12 -5 0 -9 -6 -17 -12 -17
-7 0 -26 -7 -41 -15 -25 -13 -29 -13 -34 1 -3 8 3 24 13 35 16 18 19 19 22 5
2 -9 9 -16 16 -16z m1626 -37 c-1 -52 -3 -64 -11 -50 -17 30 -13 117 7 117 2
0 4 -30 4 -67z m148 -27 c-3 -27 -7 -31 -35 -34 -27 -3 -35 1 -45 22 -15 34 2
73 37 82 14 3 25 11 26 18 0 6 5 -4 10 -23 6 -18 9 -47 7 -65z m189 74 c8 -12
9 -21 3 -25 -14 -9 -12 -59 2 -73 9 -9 8 -12 -5 -12 -29 0 -57 91 -36 116 15
19 22 18 36 -6z m-2744 -27 c-8 -52 -13 -54 -13 -5 0 23 4 42 9 42 6 0 7 -17
4 -37z m997 28 c0 -6 -4 -13 -10 -16 -5 -3 -10 1 -10 9 0 9 5 16 10 16 6 0 10
-4 10 -9z m1297 -13 c-3 -8 -6 -5 -6 6 -1 11 2 17 5 13 3 -3 4 -12 1 -19z
m-3663 -27 c-7 -9 -34 10 -34 24 0 13 3 12 18 -2 10 -10 17 -20 16 -22z m1314
2 c-3 -35 -6 -38 -35 -41 -18 -2 -33 1 -33 5 0 5 12 9 28 8 25 0 27 3 24 33
-2 19 1 32 8 32 7 0 10 -14 8 -37z m217 -24 c-4 -13 -16 -19 -36 -19 -23 0
-29 4 -29 23 0 14 10 28 28 38 25 14 27 14 35 -4 4 -11 5 -28 2 -38z m434 45
c2 -2 -4 -4 -14 -4 -10 0 -27 -7 -37 -17 -22 -19 -32 -12 -23 16 5 17 12 19
38 14 18 -3 34 -7 36 -9z m2059 -6 c6 -6 12 -25 12 -43 0 -27 -5 -34 -26 -39
-14 -4 -34 -4 -45 -1 -36 12 -16 65 24 65 10 0 15 5 12 11 -4 6 -13 8 -21 5
-15 -6 -27 7 -17 18 8 7 42 -2 61 -16z m-1468 -15 c-1 -24 -2 -26 -11 -10 -5
9 -7 22 -4 27 10 17 15 11 15 -17z m120 18 c0 -5 9 -11 21 -14 29 -8 21 -41
-11 -45 -22 -2 -23 -1 -7 9 18 10 18 12 -4 35 -12 13 -17 24 -11 24 7 0 12 -4
12 -9z m1558 -3 c19 -19 14 -38 -11 -38 -13 0 -27 -3 -30 -7 -11 -11 14 -32
30 -26 11 4 14 2 9 -5 -9 -15 -39 -15 -54 0 -27 27 -8 88 28 88 9 0 21 -5 28
-12z m-3558 -29 c0 -5 -4 -9 -10 -9 -5 0 -10 7 -10 16 0 8 5 12 10 9 6 -3 10
-10 10 -16z m1050 -6 c0 -5 -5 -15 -10 -23 -8 -12 -10 -11 -10 8 0 12 5 22 10
22 6 0 10 -3 10 -7z m110 -19 c0 -2 -9 -4 -20 -4 -11 0 -20 4 -20 9 0 5 9 7
20 4 11 -3 20 -7 20 -9z m340 0 c0 -2 -11 -4 -25 -4 -14 0 -25 4 -25 9 0 4 11
6 25 3 14 -2 25 -6 25 -8z m-1233 -16 c-3 -8 -6 -5 -6 6 -1 11 2 17 5 13 3 -3
4 -12 1 -19z m1000 16 c-3 -3 -12 -4 -19 -1 -8 3 -5 6 6 6 11 1 17 -2 13 -5z
m-237 -28 c0 -3 -4 -8 -10 -11 -5 -3 -10 -1 -10 4 0 6 5 11 10 11 6 0 10 -2
10 -4z m3144 -91 c3 -8 1 -15 -4 -15 -6 0 -10 7 -10 15 0 8 2 15 4 15 2 0 6
-7 10 -15z m-511 -42 c9 -27 17 -57 17 -67 0 -20 0 -20 -15 0 -8 10 -15 29
-15 42 0 36 -18 25 -32 -20 -12 -42 -12 -42 -16 -13 -3 31 22 105 36 105 4 0
16 -21 25 -47z m-93 -22 c0 -50 -3 -61 -20 -66 -10 -3 -29 -1 -40 5 -17 9 -20
19 -18 48 3 32 7 37 31 40 16 2 31 10 34 18 10 26 13 15 13 -45z m200 -56 c7
-8 8 -15 3 -15 -22 0 -33 27 -32 80 l1 55 8 -53 c4 -29 13 -59 20 -67z m313
91 c7 -16 -1 -26 -20 -26 -7 0 -13 9 -13 20 0 23 25 27 33 6z m107 -39 c0 -24
-7 -52 -16 -63 -15 -18 -15 -18 -9 6 3 14 9 42 12 63 8 49 13 47 13 -6z m-980
22 l-24 -10 28 -23 c16 -12 27 -28 25 -34 -2 -7 -17 0 -36 18 -37 35 -34 60 6
59 l26 0 -25 -10z m142 1 c4 -29 1 -35 -22 -40 -33 -8 -39 -37 -8 -43 22 -4
22 -4 -2 -6 -33 -1 -50 16 -50 49 0 14 5 31 12 38 15 15 67 16 70 2z m104 -14
c3 -13 4 -35 1 -47 -3 -17 -5 -13 -6 12 -1 24 -7 39 -17 43 -9 4 -18 5 -19 4
-1 -2 -9 -19 -18 -38 -16 -34 -17 -34 -17 -8 0 43 10 58 41 58 22 0 30 -6 35
-24z m434 9 c17 -20 4 -35 -31 -35 -16 0 -29 -3 -29 -7 0 -16 16 -31 35 -36
19 -4 19 -5 -2 -6 -25 -1 -53 23 -53 46 0 22 29 53 50 53 10 0 23 -7 30 -15z
m87 -5 c-14 -11 -28 -33 -30 -48 -2 -16 -5 -8 -6 21 -1 46 -1 47 30 47 l32 0
-26 -20z m313 5 c0 -8 -4 -15 -10 -15 -5 0 -10 7 -10 15 0 8 5 15 10 15 6 0
10 -7 10 -15z m-5100 -25 c0 -5 -4 -10 -10 -10 -5 0 -10 5 -10 10 0 6 5 10 10
10 6 0 10 -4 10 -10z m4890 -40 c0 -5 -2 -10 -4 -10 -3 0 -8 5 -11 10 -3 6 -1
10 4 10 6 0 11 -4 11 -10z m210 -9 c0 -11 -4 -23 -10 -26 -6 -4 -10 5 -10 19
0 14 5 26 10 26 6 0 10 -9 10 -19z m-1077 -8 c-7 -2 -19 -2 -25 0 -7 3 -2 5
12 5 14 0 19 -2 13 -5z m-3706 -121 c16 -10 33 -21 39 -23 8 -3 9 -12 3 -27
-9 -24 -29 -22 -29 2 0 8 -11 21 -25 30 -33 22 -65 74 -58 94 5 10 11 5 24
-21 10 -19 31 -44 46 -55z m3413 -36 c0 -55 -3 -66 -20 -71 -27 -9 -59 11 -66
42 -8 32 6 57 35 61 12 2 25 10 28 18 12 33 23 10 23 -50z m-145 1 c1 -23 5
-51 10 -62 8 -18 7 -18 -8 -6 -20 16 -32 71 -22 101 10 31 20 15 20 -33z m338
39 c15 -12 16 -14 2 -20 -20 -7 -20 -62 1 -74 12 -7 13 -11 4 -17 -23 -14 -42
20 -51 93 -5 34 13 41 44 18z m-445 -25 c-13 -21 -28 -19 -28 5 0 8 9 14 20
14 17 0 19 -3 8 -19z m356 3 c8 -22 8 -72 -1 -77 -5 -2 -20 -7 -35 -11 -21 -5
-30 -2 -38 15 -9 16 -8 25 6 40 9 10 24 19 33 19 20 0 3 16 -24 23 -12 3 -5 5
16 6 25 1 39 -4 43 -15z m214 4 c19 -19 14 -38 -11 -38 -13 0 -26 -3 -30 -6
-11 -12 6 -34 27 -34 19 -1 20 -1 3 -11 -24 -14 -67 13 -67 43 0 44 50 74 78
46z m401 -35 c-1 -53 -6 -49 -11 10 -2 20 0 37 4 37 4 0 8 -21 7 -47z m-191
25 c6 -6 12 -19 12 -30 0 -19 -1 -19 -18 2 -20 25 -42 20 -42 -9 0 -9 5 -22
12 -29 7 -7 9 -12 4 -12 -17 0 -36 30 -36 57 0 24 4 28 28 30 15 1 33 -3 40
-9z m82 -23 c0 -2 -9 -9 -20 -15 -18 -9 -20 -8 -20 15 0 23 2 24 20 15 11 -6
20 -13 20 -15z m-4197 -55 c17 -16 29 -31 26 -34 -6 -7 -69 43 -69 55 0 15 9
11 43 -21z m3987 9 c0 -5 -4 -9 -10 -9 -5 0 -10 7 -10 16 0 8 5 12 10 9 6 -3
10 -10 10 -16z m-4045 -95 c51 -51 36 -60 -18 -10 -30 27 -37 40 -36 67 1 25
3 28 6 11 3 -13 24 -43 48 -68z m4153 -60 c2 -32 8 -61 14 -65 7 -5 7 -8 0
-13 -16 -10 -29 23 -34 87 -3 39 -1 56 6 54 6 -2 12 -30 14 -63z m-3601 19
c-3 -10 -5 -4 -5 12 0 17 2 24 5 18 2 -7 2 -21 0 -30z m3420 -32 c5 -59 4 -61
-22 -71 -22 -8 -32 -7 -46 6 -34 31 -14 94 30 94 15 0 21 6 21 22 0 43 11 9
17 -51z m98 1 c18 -58 15 -74 -10 -48 -18 17 -48 9 -58 -16 -4 -9 -6 -7 -6 3
-1 14 10 51 34 118 8 21 20 3 40 -57z m625 38 c13 -31 8 -96 -8 -112 -5 -5 -7
15 -4 45 2 31 -1 63 -7 76 -7 11 -8 21 -3 21 5 0 15 -14 22 -30z m-4790 16 c0
-2 -7 -6 -15 -10 -8 -3 -15 -1 -15 4 0 6 7 10 15 10 8 0 15 -2 15 -4z m4680
-15 c-5 -11 -10 -32 -10 -48 -1 -23 -2 -25 -10 -12 -11 19 6 79 21 79 6 0 5
-8 -1 -19z m-105 -52 c0 -27 -3 -49 -7 -49 -5 0 -8 13 -8 28 0 15 -5 33 -12
40 -8 8 -8 15 2 27 18 22 25 10 25 -46z m-3695 31 c0 -5 -4 -10 -10 -10 -5 0
-10 5 -10 10 0 6 5 10 10 10 6 0 10 -4 10 -10z m2810 -10 c-11 -7 -8 -11 13
-19 36 -14 45 -38 21 -56 -32 -25 -50 -18 -25 9 l22 24 -25 6 c-27 7 -36 41
-13 49 18 6 24 -3 7 -13z m258 7 c12 -14 13 -77 1 -77 -4 0 -9 15 -11 32 -2
22 -9 34 -20 36 -15 3 -18 -4 -19 -35 l-1 -38 -10 34 c-5 18 -7 40 -4 47 7 18
50 18 64 1z m430 0 c18 -14 15 -37 -5 -37 -10 0 -25 -5 -33 -10 -13 -9 -12
-13 9 -30 28 -24 15 -27 -17 -4 -23 16 -30 62 -12 80 14 14 41 14 58 1z m105
6 c4 -3 -2 -12 -13 -20 -12 -9 -20 -26 -21 -46 l-1 -32 -7 30 c-10 43 -2 75
18 75 10 0 21 -3 24 -7z m412 -3 c3 -5 -1 -10 -10 -10 -9 0 -13 5 -10 10 3 6
8 10 10 10 2 0 7 -4 10 -10z m-1101 -15 c-4 -10 0 -15 15 -15 12 0 21 6 21 16
0 8 5 12 10 9 20 -12 9 -34 -17 -37 -34 -4 -39 -33 -5 -32 12 0 22 -5 22 -13
0 -16 -24 -17 -51 -3 -25 14 -24 90 2 90 4 0 6 -7 3 -15z m-3124 -5 c0 -5 -5
-10 -11 -10 -5 0 -7 5 -4 10 3 6 8 10 11 10 2 0 4 -4 4 -10z m-605 -18 c-3 -3
-11 0 -18 7 -9 10 -8 11 6 5 10 -3 15 -9 12 -12z m640 -20 c-3 -3 -11 0 -18 7
-9 10 -8 11 6 5 10 -3 15 -9 12 -12z m4193 -24 c-4 -27 -28 -36 -28 -10 0 20
8 32 22 32 5 0 8 -10 6 -22z m-208 -9 c0 -5 -4 -9 -10 -9 -5 0 -10 7 -10 16 0
8 5 12 10 9 6 -3 10 -10 10 -16z m-4844 -36 c-10 -10 -19 5 -10 18 6 11 8 11
12 0 2 -7 1 -15 -2 -18z m644 -13 c0 -5 -5 -10 -11 -10 -5 0 -7 5 -4 10 3 6 8
10 11 10 2 0 4 -4 4 -10z m-30 -30 c0 -5 -4 -10 -10 -10 -5 0 -10 5 -10 10 0
6 5 10 10 10 6 0 10 -4 10 -10z m4009 -55 c0 -37 -13 -17 -24 35 -7 33 -6 34
9 15 8 -11 15 -33 15 -50z m-619 -26 c0 -54 -2 -61 -25 -71 -21 -9 -28 -8 -45
7 -32 29 -23 76 17 95 18 8 33 21 33 28 0 7 5 10 10 7 6 -3 10 -33 10 -66z
m180 15 c0 -42 5 -60 18 -71 16 -13 16 -14 -3 -11 -17 3 -21 12 -23 58 -2 30
-8 60 -14 67 -8 10 -6 13 6 13 13 0 16 -11 16 -56z m-100 22 c0 -13 7 -29 15
-36 8 -7 15 -25 15 -41 0 -31 -14 -39 -24 -14 -7 20 -33 19 -45 -2 -18 -33
-22 -5 -7 46 8 28 18 56 21 61 11 18 25 10 25 -14z m430 0 c0 -8 -3 -22 -6
-31 -6 -14 -8 -13 -21 5 -8 11 -11 25 -8 30 9 15 35 12 35 -4z m-1099 -16
l-25 -6 27 -20 c14 -12 24 -24 20 -27 -3 -4 -1 -13 6 -21 9 -11 8 -15 -4 -20
-8 -3 -22 -3 -31 1 -16 6 -16 7 0 18 14 11 14 14 -4 30 -11 10 -20 23 -20 30
0 19 21 34 39 27 13 -5 11 -7 -8 -12z m479 -46 c0 -18 -4 -36 -10 -39 -6 -4
-10 8 -10 28 0 34 -20 64 -33 50 -4 -3 -7 -24 -7 -46 0 -50 -5 -46 -14 11 -6
38 -4 43 16 51 32 12 58 -13 58 -55z m-4000 36 c0 -11 -4 -20 -9 -20 -5 0 -7
9 -4 20 3 11 7 20 9 20 2 0 4 -9 4 -20z m1260 10 c0 -5 -2 -10 -4 -10 -3 0 -8
5 -11 10 -3 6 -1 10 4 10 6 0 11 -4 11 -10z m2170 -28 c0 -21 5 -43 12 -50 9
-9 7 -12 -12 -12 -23 0 -25 4 -26 50 0 35 3 50 13 50 8 0 13 -13 13 -38z m318
31 c-24 -6 -23 -15 7 -41 32 -28 23 -52 -19 -51 -31 0 -31 0 -6 10 l25 10 -22
19 c-36 29 -29 61 11 59 17 -1 18 -2 4 -6z m126 1 c9 -3 16 -15 16 -25 0 -18
-5 -21 -40 -23 -25 -2 -17 -30 10 -37 24 -7 24 -7 -5 -8 -52 -2 -70 33 -39 77
16 23 30 27 58 16z m557 -10 c11 -14 10 -18 -6 -30 -10 -8 -25 -14 -33 -14
-22 0 -8 -24 19 -31 22 -7 22 -7 -6 -8 -38 -1 -55 14 -55 49 0 14 5 31 12 38
17 17 53 15 69 -4z m98 9 c-15 -4 -31 -27 -42 -63 -3 -8 -6 4 -6 28 -1 41 0
42 32 41 17 -1 25 -3 16 -6z m311 3 c0 -3 -4 -8 -10 -11 -5 -3 -10 -1 -10 4 0
6 5 11 10 11 6 0 10 -2 10 -4z m-4203 -38 c-3 -8 -6 -5 -6 6 -1 11 2 17 5 13
3 -3 4 -12 1 -19z m551 -13 c15 -14 22 -25 16 -25 -6 0 -21 11 -34 25 -13 14
-20 25 -16 25 4 0 19 -11 34 -25z m3532 -36 c-7 -16 -16 -29 -21 -29 -12 0
-12 1 7 46 9 22 19 33 21 26 3 -7 0 -26 -7 -43z m-87 -12 c-6 -9 -43 27 -43
42 0 5 11 0 24 -12 13 -12 22 -25 19 -30z m-3956 27 c-3 -3 -12 -4 -19 -1 -8
3 -5 6 6 6 11 1 17 -2 13 -5z m643 -36 c0 -10 -4 -18 -10 -18 -5 0 -10 15 -10
33 0 24 3 28 10 17 5 -8 10 -23 10 -32z m2328 24 c2 -7 -3 -12 -12 -12 -9 0
-16 7 -16 16 0 17 22 14 28 -4z m1183 -25 c-8 -8 -11 -5 -11 9 0 27 14 41 18
19 2 -9 -1 -22 -7 -28z m-4941 1 c0 -6 -6 -5 -15 2 -8 7 -15 14 -15 16 0 2 7
1 15 -2 8 -4 15 -11 15 -16z m1225 -7 c8 -17 27 -42 41 -58 15 -16 21 -29 14
-31 -16 -6 -51 28 -66 65 -24 56 -15 74 11 24z m124 -25 c-2 -27 -2 -28 -6 -6
-3 14 -9 29 -14 35 -15 15 -10 28 6 15 8 -7 14 -27 14 -44z m-712 2 c-3 -8 -6
-5 -6 6 -1 11 2 17 5 13 3 -3 4 -12 1 -19z m-686 -10 c11 -21 11 -22 -4 -9
-10 7 -17 17 -17 22 0 15 9 10 21 -13z m629 12 c0 -5 -5 -10 -11 -10 -5 0 -7
5 -4 10 3 6 8 10 11 10 2 0 4 -4 4 -10z m590 -37 c0 -8 7 -27 15 -43 11 -22
12 -30 4 -30 -7 0 -21 -7 -31 -17 -10 -9 -21 -13 -26 -9 -4 5 3 15 16 23 23
16 29 39 12 45 -6 2 -13 21 -16 43 -5 38 -4 39 10 21 9 -11 16 -26 16 -33z
m3015 -53 c4 -33 11 -63 16 -66 14 -8 11 -24 -5 -24 -18 0 -26 22 -26 75 0 24
-5 47 -10 50 -6 4 -8 11 -5 16 14 22 23 5 30 -51z m-295 -15 c0 -59 -2 -67
-22 -74 -30 -11 -45 -4 -55 22 -15 45 10 93 43 80 9 -3 14 2 14 16 0 12 5 21
10 21 6 0 10 -28 10 -65z m200 14 c0 -10 5 -21 10 -24 10 -6 14 -55 4 -55 -3
0 -12 7 -21 16 -14 14 -18 13 -39 -7 -32 -30 -30 -6 9 95 10 27 11 27 24 10 7
-10 13 -26 13 -35z m531 10 c-5 -24 -4 -49 4 -72 14 -41 8 -55 -11 -29 -17 21
-18 114 -2 130 16 16 18 11 9 -29z m218 -39 c0 -26 -6 -53 -15 -65 -15 -19
-16 -18 -9 20 10 52 10 64 1 100 -7 28 -7 29 8 10 9 -11 15 -40 15 -65z m-318
27 c-17 -17 -13 -58 7 -74 16 -12 15 -13 -8 -11 -21 3 -26 9 -28 38 -2 19 -8
41 -14 48 -8 9 -6 16 7 26 16 11 21 11 33 -1 11 -11 12 -17 3 -26z m-3400 4
c-7 -12 -17 -18 -26 -15 -18 7 -10 24 11 24 8 0 14 5 14 12 0 6 3 9 6 6 3 -4
1 -16 -5 -27z m3609 9 c0 -21 -15 -27 -25 -10 -7 12 2 30 16 30 5 0 9 -9 9
-20z m-1205 -10 c-18 -6 -18 -9 8 -32 33 -31 34 -46 5 -57 -31 -12 -44 -2 -21
14 17 13 17 15 -7 40 -24 26 -24 27 -6 40 10 8 24 11 29 8 6 -4 3 -9 -8 -13z
m255 -44 c0 -30 -3 -37 -10 -26 -5 8 -10 27 -10 43 0 33 -27 37 -34 5 -3 -13
-7 -32 -9 -43 -3 -11 -5 1 -6 27 -1 41 2 47 22 50 34 6 47 -10 47 -56z m203
57 c4 -3 -3 -11 -15 -17 -32 -16 -35 -46 -7 -68 l24 -19 -25 3 c-21 3 -25 9
-28 41 -4 50 26 86 51 60z m331 -12 c22 -24 13 -41 -20 -41 -33 0 -31 -26 4
-38 l27 -10 -31 -1 c-24 -1 -33 5 -42 24 -16 35 -15 42 8 65 25 25 32 25 54 1z
m120 10 c3 -5 -3 -11 -13 -14 -12 -3 -21 -17 -25 -41 -9 -48 -26 -46 -26 4 0
33 4 42 23 50 29 12 35 12 41 1z m516 -12 c0 -5 -4 -9 -10 -9 -5 0 -10 7 -10
16 0 8 5 12 10 9 6 -3 10 -10 10 -16z m-3896 -14 c-4 -9 0 -15 9 -15 8 0 25
-9 38 -19 19 -15 21 -22 12 -32 -6 -6 -20 -9 -30 -5 -15 6 -15 8 -3 16 13 8
13 10 0 10 -9 0 -24 10 -34 21 -15 18 -15 23 -5 30 19 12 19 11 13 -6z m2564
-42 c-7 -9 -6 -14 3 -17 40 -13 41 -14 13 -15 -37 -1 -46 15 -37 60 l6 31 13
-23 c8 -17 9 -28 2 -36z m52 38 c0 -11 -4 -23 -10 -26 -6 -4 -10 5 -10 19 0
14 5 26 10 26 6 0 10 -9 10 -19z m-2650 -46 c0 -16 -6 -25 -15 -25 -8 0 -15
-7 -15 -15 0 -21 -13 -19 -27 4 -15 24 5 45 33 34 17 -6 17 -5 5 10 -12 15
-11 17 3 17 10 0 16 -9 16 -25z m3711 -28 c-8 -8 -11 -3 -11 19 1 25 2 27 11
11 8 -14 8 -22 0 -30z m-2986 22 c11 -16 1 -19 -13 -3 -7 8 -8 14 -3 14 5 0
13 -5 16 -11z m3203 -11 c-4 -27 -28 -36 -28 -10 0 20 8 32 22 32 5 0 8 -10 6
-22z m-5128 -18 c0 -11 -4 -20 -8 -20 -4 0 -8 9 -8 20 0 11 4 20 8 20 4 0 8
-9 8 -20z m1110 0 c0 -5 -4 -10 -10 -10 -5 0 -10 -9 -10 -19 0 -11 5 -23 10
-26 6 -3 9 -14 9 -23 -1 -15 -2 -15 -6 1 -2 9 -8 17 -13 17 -13 0 -20 43 -8
57 12 15 28 17 28 3z m93 -37 c-7 -2 -19 -2 -25 0 -7 3 -2 5 12 5 14 0 19 -2
13 -5z m-173 -23 c0 -5 -4 -10 -10 -10 -5 0 -10 5 -10 10 0 6 5 10 10 10 6 0
10 -4 10 -10z m2245 -52 c4 -18 11 -38 16 -44 6 -8 4 -14 -6 -18 -11 -4 -15 1
-15 19 0 13 -4 27 -10 30 -13 8 -13 45 -1 45 5 0 13 -15 16 -32z m-2275 -14
c0 -8 10 -14 23 -14 20 -1 20 -2 4 -11 -22 -13 -33 -6 -39 26 -3 13 -1 22 3
19 5 -3 9 -12 9 -20z m-40 -49 c0 -8 -2 -15 -4 -15 -2 0 -6 7 -10 15 -3 8 -1
15 4 15 6 0 10 -7 10 -15z m-630 -19 c0 -3 -4 -8 -10 -11 -5 -3 -10 -1 -10 4
0 6 5 11 10 11 6 0 10 -2 10 -4z m2936 -41 c-8 -23 -25 -9 -19 16 4 13 9 17
16 10 5 -5 7 -17 3 -26z m339 -150 c0 -47 -2 -79 -4 -72 -2 6 -8 15 -13 18
-14 9 -13 102 0 107 7 2 12 10 12 18 0 8 1 14 3 14 1 0 2 -38 2 -85z m-404 8
c3 -74 -24 -102 -63 -66 -33 30 -16 99 23 91 8 -2 15 7 17 21 6 39 21 9 23
-46z m1389 48 c-13 -25 -13 -87 1 -112 6 -11 8 -25 6 -32 -2 -7 -10 2 -17 18
-7 17 -17 38 -22 49 -10 20 16 96 34 96 5 0 4 -9 -2 -19z m-1180 -24 c0 -4 -7
-10 -15 -13 -21 -8 -19 -54 2 -70 23 -16 11 -29 -15 -15 -13 7 -21 25 -25 57
-7 64 -2 74 29 60 13 -6 24 -15 24 -19z m-1220 3 c0 -11 -7 -20 -15 -20 -27 0
-18 30 13 39 1 1 2 -8 2 -19z m1104 -12 c21 -30 21 -88 0 -88 -11 0 -14 6 -9
20 5 16 2 20 -14 20 -23 0 -28 -19 -9 -38 7 -7 9 -12 6 -12 -43 0 -54 56 -13
66 30 7 33 24 5 24 -20 0 -26 11 -13 23 12 13 32 7 47 -15z m220 6 c9 -8 16
-31 16 -50 0 -28 -5 -36 -25 -44 -36 -14 -57 -2 -53 28 2 18 11 28 28 33 21 5
22 7 8 14 -22 9 -24 35 -4 35 8 0 22 -7 30 -16z m221 -4 c15 -16 15 -22 5 -35
-7 -8 -21 -15 -31 -15 -11 0 -19 -4 -19 -10 0 -9 14 -14 33 -11 4 0 7 -6 7
-14 0 -23 -37 -18 -54 7 -22 31 -20 54 6 78 27 25 31 25 53 0z m103 8 c15 -15
16 -102 2 -93 -5 3 -10 22 -10 41 0 24 -5 34 -15 34 -10 0 -15 -10 -15 -27 0
-16 -5 -35 -10 -43 -7 -11 -10 0 -10 37 0 51 2 54 41 62 3 0 10 -4 17 -11z
m114 -5 c27 -25 22 -43 -12 -43 -35 0 -43 -29 -10 -37 26 -7 26 -23 1 -23 -23
0 -60 49 -53 70 7 21 33 50 45 50 6 0 19 -7 29 -17z m118 3 c0 -7 -9 -16 -20
-19 -15 -4 -20 -14 -20 -41 0 -20 -4 -36 -9 -36 -30 0 -18 88 13 100 30 12 36
12 36 -4z m110 -55 c0 -63 -16 -95 -45 -90 -23 5 -32 29 -11 29 9 0 16 5 16
10 0 6 -6 10 -13 10 -13 0 -37 40 -37 60 0 22 38 48 64 43 24 -5 26 -9 26 -62z
m76 9 c8 0 14 9 14 20 0 11 7 20 16 20 8 0 14 -3 12 -7 -2 -5 -9 -19 -15 -33
-36 -86 -44 -100 -53 -100 -13 0 -13 6 0 31 8 14 7 31 -4 62 -8 23 -11 46 -8
52 3 5 10 -3 15 -18 5 -15 15 -27 23 -27z m124 12 c-1 -15 -8 -38 -16 -52
l-15 -25 5 25 c3 14 6 40 6 58 0 20 4 31 10 27 6 -3 10 -18 10 -33z m-1445 18
c-3 -5 -10 -10 -16 -10 -5 0 -9 5 -9 10 0 6 7 10 16 10 8 0 12 -4 9 -10z
m-128 -42 c-3 -7 -5 -2 -5 12 0 14 2 19 5 13 2 -7 2 -19 0 -25z m70 0 c-3 -7
-5 -2 -5 12 0 14 2 19 5 13 2 -7 2 -19 0 -25z m1283 -199 c0 -33 -5 -61 -12
-67 -10 -8 -13 7 -13 73 0 67 2 79 12 66 7 -9 13 -41 13 -72z m-120 51 c-12
-22 -10 -77 4 -115 7 -17 5 -17 -13 4 -25 28 -28 87 -5 119 20 28 30 22 14 -8z
m-2140 -47 c0 -57 -8 -73 -37 -73 -31 0 -53 22 -53 52 0 28 17 48 41 48 10 0
21 10 24 21 10 32 25 4 25 -48z m1677 6 c-5 -42 7 -65 38 -72 18 -4 17 -5 -3
-6 -13 0 -30 5 -38 13 -17 18 -20 121 -3 110 7 -4 9 -22 6 -45z m-1487 11
c-16 -10 -15 -70 1 -81 11 -7 11 -9 -2 -9 -19 0 -29 20 -29 55 0 13 -4 26 -10
30 -5 3 -7 12 -4 20 5 11 11 11 30 3 15 -7 20 -14 14 -18z m-95 -10 c9 -27 -1
-39 -25 -33 -15 4 -20 0 -20 -16 0 -12 6 -21 15 -21 8 0 15 5 15 10 0 6 4 10
10 10 5 0 7 -7 4 -15 -8 -20 -60 -19 -68 1 -10 26 -7 32 24 43 36 12 39 28 8
34 -20 4 -20 4 4 6 19 1 29 -5 33 -19z m219 1 c10 -11 16 -31 14 -48 -2 -23
-8 -29 -34 -31 -31 -3 -64 21 -50 36 4 4 12 -1 17 -11 18 -32 38 -20 36 23 -1
31 -6 40 -22 43 -20 4 -20 4 1 6 11 0 29 -8 38 -18z m544 7 c22 -22 12 -53
-28 -91 l-40 -37 0 47 1 48 19 -23 c18 -21 21 -22 35 -9 18 19 18 27 0 51 -12
16 -17 17 -30 6 -17 -14 -31 -8 -20 9 8 15 48 14 63 -1z m102 -1 c-14 -7 -26
-23 -28 -35 -5 -32 -22 -27 -22 6 0 36 6 42 44 42 l31 0 -25 -13z m106 -5 c1
-7 0 -8 -3 -2 -10 21 -33 9 -42 -22 -8 -30 -9 -31 -10 -7 -1 14 5 31 11 37 15
15 40 12 44 -6z m94 5 c-41 -21 -36 -62 10 -80 10 -4 8 -6 -7 -6 -39 -2 -59
68 -25 88 9 6 24 10 32 11 8 0 4 -6 -10 -13z m128 -14 c3 -19 -1 -23 -22 -23
-17 0 -26 -6 -26 -16 0 -8 -4 -12 -10 -9 -14 9 -12 43 3 60 18 22 51 14 55
-12z m90 20 c-24 -6 -23 -19 3 -37 30 -21 21 -51 -16 -53 -20 -1 -23 0 -7 4
29 6 28 27 -4 48 -20 13 -23 19 -13 31 6 8 21 13 33 13 17 -1 17 -2 4 -6z
m105 0 c-21 -4 -33 -23 -15 -23 4 0 18 -9 32 -19 20 -16 22 -21 11 -35 -7 -9
-25 -15 -40 -15 -23 2 -24 2 -3 6 26 5 29 31 5 40 -40 15 -32 54 11 52 20 -2
20 -2 -1 -6z m115 0 c-24 -6 -23 -19 3 -37 32 -22 21 -50 -21 -54 -29 -3 -38
10 -9 14 5 1 13 2 19 3 14 2 0 31 -15 31 -18 0 -28 17 -21 35 3 9 17 15 33 14
17 -1 21 -3 11 -6z m226 1 c19 -7 22 -64 4 -82 -35 -35 -74 8 -56 60 10 28 23
33 52 22z m124 -58 c3 -61 -5 -76 -40 -76 -10 0 -18 5 -18 10 0 6 7 10 15 10
21 0 19 18 -4 25 -16 5 -30 31 -31 57 0 16 34 39 54 36 18 -3 21 -11 24 -62z
m85 57 c-30 -6 -29 -13 4 -39 24 -19 26 -24 14 -38 -7 -9 -25 -16 -40 -15 -25
1 -25 1 -3 7 13 4 23 10 23 15 -1 4 -1 12 -1 17 0 6 -6 10 -14 10 -19 0 -29
17 -22 35 3 9 17 14 33 14 24 -2 25 -2 6 -6z m327 -1 c0 -13 -12 -22 -22 -16
-10 6 -1 24 13 24 5 0 9 -4 9 -8z m-1290 -77 c-7 -8 -20 -14 -29 -14 -13 1
-13 2 2 6 9 2 17 9 17 14 0 5 5 9 11 9 8 0 8 -5 -1 -15z m1284 -7 c-8 -28 -12
-33 -20 -25 -9 8 6 47 17 47 6 0 7 -10 3 -22z m-1061 -5 c-7 -2 -21 -2 -30 0
-10 3 -4 5 12 5 17 0 24 -2 18 -5z m-565 -126 c-8 -28 -8 -46 0 -74 12 -41 8
-53 -11 -34 -18 18 -16 129 3 141 20 12 21 9 8 -33z m100 18 c7 -14 12 -43 12
-64 0 -39 -23 -82 -36 -68 -4 4 -2 13 4 19 15 15 16 92 2 119 -6 10 -7 19 -2
19 5 0 14 -11 20 -25z m-1189 -39 c-13 -14 -11 -60 3 -74 9 -9 8 -12 -5 -12
-10 0 -19 11 -22 28 -4 15 -10 35 -16 44 -12 23 -12 24 7 43 15 14 17 14 29
-2 9 -11 10 -22 4 -27z m873 -16 c-2 -28 1 -46 9 -51 17 -10 4 -23 -16 -16 -9
4 -15 19 -15 41 0 19 -5 38 -10 41 -8 5 -7 11 1 21 21 25 34 9 31 -36z m-2545
18 c-3 -8 -6 -5 -6 6 -1 11 2 17 5 13 3 -3 4 -12 1 -19z m1482 -55 c1 -16 -5
-23 -17 -23 -15 0 -17 7 -14 38 5 58 14 72 22 37 4 -16 8 -40 9 -52z m94 63
c21 -16 24 -81 3 -89 -20 -8 -28 4 -14 20 14 17 4 28 -18 19 -9 -3 -14 -13
-10 -21 6 -18 -6 -26 -23 -16 -19 12 -4 51 19 51 22 0 35 30 18 42 -7 4 -8 8
-3 8 6 -1 18 -7 28 -14z m432 4 c3 -5 -1 -10 -9 -10 -9 0 -16 -7 -16 -15 0 -8
5 -15 11 -15 6 0 17 -6 24 -14 12 -11 12 -17 1 -31 -10 -14 -19 -16 -42 -10
-24 7 -26 9 -9 13 35 7 40 21 12 31 -29 11 -34 30 -15 49 15 15 35 16 43 2z
m117 -7 c10 -9 18 -30 18 -49 0 -29 -4 -35 -32 -42 -21 -6 -38 -5 -45 1 -21
16 -15 47 12 59 26 12 36 34 10 24 -9 -3 -15 0 -15 9 0 20 29 19 52 -2z m102
7 c25 -9 38 -50 16 -50 -5 0 -10 7 -10 15 0 30 -20 14 -21 -17 l-1 -33 -7 30
c-8 39 -24 35 -32 -7 -6 -30 -6 -29 -8 14 -1 42 5 54 31 57 4 1 18 -3 32 -9z
m134 -43 c2 -28 -1 -47 -7 -47 -6 0 -11 14 -11 30 0 17 -4 30 -10 30 -5 0 -10
-13 -10 -30 0 -41 -20 -38 -22 3 l-1 32 -4 -32 c-2 -18 -8 -33 -13 -33 -11 0
-19 24 -15 46 2 11 4 24 4 31 1 13 24 20 61 19 23 -1 25 -6 28 -49z m92 35
c28 -23 21 -37 -20 -46 -37 -7 -31 -26 8 -27 26 0 26 -1 5 -11 -12 -6 -29 -8
-37 -5 -24 10 -31 54 -12 82 20 30 27 31 56 7z m230 -9 c0 -9 -6 -12 -19 -8
-13 4 -20 0 -24 -16 -8 -28 -1 -39 24 -39 10 0 19 -4 19 -10 0 -5 -13 -10 -30
-10 -35 0 -55 29 -46 66 10 39 76 54 76 17z m300 6 c0 -5 -7 -9 -15 -9 -15 0
-20 12 -9 23 8 8 24 -1 24 -14z m-1558 -1 c-15 -15 -15 -51 0 -66 17 -17 2
-28 -17 -12 -28 23 -14 90 19 90 6 0 5 -5 -2 -12z m388 -50 c0 -22 -5 -28 -21
-28 -18 0 -19 3 -9 15 10 12 9 16 -3 21 -21 8 -37 -3 -37 -24 0 -12 -3 -13
-12 -4 -13 13 5 42 27 42 7 0 16 10 19 23 6 22 7 22 21 3 8 -11 15 -32 15 -48z
m72 -30 c-6 -6 -16 -7 -22 -3 -9 6 -9 9 1 16 17 10 34 0 21 -13z m1088 -13
c-9 -11 -16 -13 -23 -6 -7 7 -6 15 3 26 9 11 16 13 23 6 7 -7 6 -15 -3 -26z
m877 -97 c-3 -8 -6 -5 -6 6 -1 11 2 17 5 13 3 -3 4 -12 1 -19z m-3162 -12 c0
-31 -13 -44 -21 -22 -3 9 -1 23 6 31 16 19 16 19 15 -9z m1429 8 c16 -16 20
-52 10 -91 -7 -27 -40 -39 -59 -23 -20 17 -19 89 2 112 20 22 27 22 47 2z
m-989 -124 c7 -22 6 -23 -9 -8 -17 17 -22 50 -17 108 3 30 5 27 11 -20 4 -30
10 -66 15 -80z m2505 67 c0 -31 -6 -61 -15 -73 -14 -19 -14 -19 -15 3 0 12 5
25 11 29 7 4 9 22 4 50 -4 29 -2 44 4 44 7 0 11 -22 11 -53z m-2195 33 c3 -5
-1 -10 -9 -10 -9 0 -16 5 -16 10 0 6 4 10 9 10 6 0 13 -4 16 -10z m228 -42
c-4 -20 -1 -29 11 -34 27 -10 18 -24 -15 -24 -26 0 -29 2 -19 14 6 8 11 30 10
48 -3 47 -1 55 9 38 6 -8 7 -27 4 -42z m765 -7 c-1 -40 -2 -41 -5 -11 -3 19
-9 39 -14 45 -14 14 -11 25 6 19 11 -4 15 -19 13 -53z m362 51 c0 -4 -10 -12
-22 -17 -14 -6 -25 -22 -29 -40 l-6 -30 -7 27 c-5 16 -6 34 -3 42 5 12 15 17
60 25 4 0 7 -2 7 -7z m-595 -11 c3 -5 1 -12 -5 -16 -5 -3 -10 1 -10 9 0 18 6
21 15 7z m423 -20 c-10 -16 -10 -23 0 -33 14 -14 16 -28 2 -28 -16 0 -23 46
-10 70 6 12 14 20 17 17 2 -3 -1 -14 -9 -26z m271 15 c31 -37 -9 -103 -46 -80
-19 11 -29 55 -19 80 7 18 50 18 65 0z m409 -26 c2 -19 11 -40 20 -47 15 -11
13 -12 -15 -13 -18 0 -33 5 -33 10 0 6 5 10 10 10 6 0 10 14 10 30 0 17 -4 30
-10 30 -5 0 -10 5 -10 11 0 27 25 -1 28 -31z m-2403 20 c-3 -5 -10 -10 -16
-10 -5 0 -9 5 -9 10 0 6 7 10 16 10 8 0 12 -4 9 -10z m998 3 c-7 -2 -19 -2
-25 0 -7 3 -2 5 12 5 14 0 19 -2 13 -5z m637 -13 c-6 -11 -13 -20 -15 -20 -3
0 -5 9 -5 20 0 11 7 20 15 20 13 0 14 -4 5 -20z m427 -20 c0 -22 -3 -40 -7
-40 -9 0 -19 68 -11 75 12 13 18 1 18 -35z m452 28 c15 -9 17 -15 8 -28 -9
-15 -12 -16 -28 -2 -9 8 -15 21 -12 28 6 17 8 17 32 2z m116 -19 c0 -7 -8 -15
-17 -17 -18 -3 -25 18 -11 32 10 10 28 1 28 -15z m305 5 c0 -8 -5 -12 -10 -9
-6 4 -8 11 -5 16 9 14 15 11 15 -7z m-3864 -30 c-3 -9 -6 -18 -6 -20 0 -3 -4
-3 -10 1 -11 7 -2 35 12 35 6 0 7 -7 4 -16z m3038 1 c-7 -16 -24 -21 -24 -6 0
8 7 13 27 20 1 1 0 -6 -3 -14z m-3219 -15 c3 -5 1 -10 -4 -10 -6 0 -11 5 -11
10 0 6 2 10 4 10 3 0 8 -4 11 -10z m2419 2 c2 -4 -2 -16 -10 -27 -13 -18 -14
-18 -14 8 0 25 13 36 24 19z m886 -6 c0 -7 -7 -19 -15 -26 -16 -13 -20 -3 -9
24 8 20 24 21 24 2z m763 -6 c3 -11 1 -23 -4 -26 -5 -3 -9 6 -9 20 0 31 6 34
13 6z m-3662 -51 c16 -11 29 -27 29 -35 0 -12 -2 -12 -17 1 -10 7 -29 23 -43
34 -33 27 -7 27 31 0z m-614 -43 c11 -13 25 -25 30 -27 9 -4 27 -99 19 -99 -3
0 -10 17 -16 38 -7 20 -25 54 -42 75 -32 40 -24 52 9 13z m2646 -8 c-6 -7 -16
-30 -22 -50 -10 -31 -10 -41 5 -63 9 -14 14 -28 11 -31 -9 -9 -37 52 -37 80 0
35 20 76 38 76 10 0 12 -4 5 -12z m105 -21 c15 -42 15 -66 0 -100 -16 -32 -33
-36 -23 -4 14 42 17 95 6 101 -13 8 -15 36 -3 36 4 0 13 -15 20 -33z m-978
-12 c0 -8 -7 -15 -15 -15 -7 0 -19 -8 -24 -17 -12 -20 -14 -13 -5 11 3 9 12
16 20 16 8 0 14 5 14 10 0 6 2 10 5 10 3 0 5 -7 5 -15z m-1550 -5 c0 -5 -5
-10 -11 -10 -5 0 -7 5 -4 10 3 6 8 10 11 10 2 0 4 -4 4 -10z m2000 -9 c13 -24
13 -71 1 -71 -6 0 -11 15 -13 33 -4 45 -31 43 -39 -3 -5 -29 -7 -31 -8 -8 0
14 -4 33 -7 41 -4 11 2 17 18 20 13 2 26 5 30 6 4 0 12 -8 18 -18z m108 7 c7
-7 12 -29 12 -49 0 -33 -3 -37 -32 -43 -52 -10 -67 33 -20 58 27 15 27 16 5
22 -13 3 -20 10 -17 15 8 13 38 11 52 -3z m100 6 c18 -5 22 -13 22 -45 0 -22
-4 -39 -10 -39 -5 0 -10 14 -10 31 0 27 -3 30 -27 27 -22 -2 -29 -10 -34 -33
-6 -27 -7 -26 -8 12 -1 49 15 61 67 47z m116 -10 c9 -8 16 -20 16 -25 0 -9 -6
-11 -39 -13 -23 -2 -25 -27 -2 -33 12 -3 21 -10 21 -15 0 -14 -43 1 -57 20
-17 21 -16 33 3 60 18 26 37 28 58 6z m-864 -20 c0 -21 -17 -17 -23 5 -3 14
-1 18 9 14 8 -3 14 -11 14 -19z m170 22 c0 -3 -4 -8 -10 -11 -5 -3 -10 -1 -10
4 0 6 5 11 10 11 6 0 10 -2 10 -4z m1000 -12 c0 -14 -3 -14 -15 -4 -8 7 -15
14 -15 16 0 2 7 4 15 4 8 0 15 -7 15 -16z m-1222 -29 c-3 -42 -18 -47 -18 -7
0 26 7 42 17 42 2 0 3 -16 1 -35z m319 -2 c-3 -10 -5 -4 -5 12 0 17 2 24 5 18
2 -7 2 -21 0 -30z m-1447 -58 c0 -13 -5 -27 -10 -30 -6 -4 -10 5 -8 22 2 34
-8 53 -28 53 -15 0 -19 12 -7 24 12 12 53 -42 53 -69z m70 59 c0 -8 -4 -12
-10 -9 -5 3 -10 10 -10 16 0 5 5 9 10 9 6 0 10 -7 10 -16z m3300 4 c0 -5 -13
-8 -30 -8 -16 0 -30 4 -30 9 0 4 13 8 30 7 16 -1 30 -4 30 -8z m-3704 -18 c8
0 14 -4 14 -10 0 -5 -9 -10 -20 -10 -14 0 -20 6 -19 23 0 12 3 16 6 10 2 -7
11 -13 19 -13z m-618 -75 c-2 -12 -12 -4 -35 29 -42 60 -41 64 3 22 20 -19 34
-41 32 -51z m2218 47 c-10 -2 -22 0 -28 6 -6 6 0 7 19 4 21 -5 23 -7 9 -10z
m324 8 c0 -5 -4 -10 -10 -10 -5 0 -10 5 -10 10 0 6 5 10 10 10 6 0 10 -4 10
-10z m760 -4 c0 -7 -7 -19 -15 -26 -16 -13 -20 -3 -9 24 8 20 24 21 24 2z
m-3427 -33 c-29 -6 -30 -32 -2 -67 15 -19 17 -26 7 -26 -23 0 -38 22 -38 55 0
37 6 45 34 44 19 -2 19 -2 -1 -6z m213 -8 c11 -29 -2 -37 -19 -11 -15 23 -16
26 -2 26 9 0 18 -7 21 -15z m-279 -77 c18 -22 30 -44 27 -50 -3 -5 -18 8 -32
29 -14 21 -29 40 -34 41 -10 5 -11 22 0 21 4 0 22 -18 39 -41z m109 -14 c-3
-8 -11 -14 -18 -13 -10 0 -10 2 0 6 6 2 13 19 13 36 1 25 3 27 6 9 3 -13 2
-30 -1 -38z m94 40 c0 -8 -4 -12 -10 -9 -5 3 -10 10 -10 16 0 5 5 9 10 9 6 0
10 -7 10 -16z m151 -35 c-35 -28 -51 -22 -17 7 15 14 31 22 35 19 3 -4 -5 -15
-18 -26z m639 -35 c0 -8 -5 -12 -10 -9 -6 4 -8 11 -5 16 9 14 15 11 15 -7z
m-80 -14 c0 -11 -2 -20 -3 -20 -2 0 -12 9 -22 20 -18 19 -17 20 3 20 15 0 22
-6 22 -20z m-1140 -10 c0 -5 -4 -10 -10 -10 -5 0 -10 5 -10 10 0 6 5 10 10 10
6 0 10 -4 10 -10z m1 -51 c16 -17 29 -40 29 -52 0 -11 -2 -18 -3 -16 -21 25
-66 99 -61 99 3 0 19 -14 35 -31z m117 -25 c-10 -10 -28 6 -28 24 0 15 1 15
17 -1 9 -9 14 -19 11 -23z m927 4 c15 -32 15 -34 -6 -50 -26 -22 -46 -24 -25
-2 22 22 20 43 -6 54 -18 7 -19 9 -5 9 9 1 17 6 17 11 0 18 8 11 25 -22z m49
17 c-4 -8 -8 -15 -10 -15 -2 0 -4 7 -4 15 0 8 4 15 10 15 5 0 7 -7 4 -15z
m-1357 -117 c-3 -8 -6 -5 -6 6 -1 11 2 17 5 13 3 -3 4 -12 1 -19z m3882 -5 c0
-11 -59 -57 -59 -47 0 4 10 18 22 31 21 23 39 30 37 16z m-3809 -22 c5 -11 7
-26 4 -35 -6 -17 -34 -30 -34 -16 0 6 5 10 10 10 19 0 10 32 -10 37 -11 3 -17
9 -14 14 9 15 33 10 44 -10z m84 -7 c9 -22 -3 -32 -14 -14 -12 19 -12 30 -1
30 5 0 12 -7 15 -16z m3746 -44 c0 -5 -5 -10 -11 -10 -5 0 -7 5 -4 10 3 6 8
10 11 10 2 0 4 -4 4 -10z m-4100 -20 c0 -5 -5 -10 -11 -10 -8 0 -8 -5 1 -15
10 -13 9 -15 -10 -15 -15 0 -20 5 -17 14 3 7 0 19 -6 25 -8 8 -4 11 16 11 15
0 27 -4 27 -10z m1223 -10 c32 -38 21 -46 -42 -34 -21 5 -31 12 -31 25 0 11 5
19 10 19 6 0 10 -4 10 -10 0 -5 9 -10 20 -10 22 0 27 15 8 23 -7 3 -8 6 -3 6
6 1 18 -8 28 -19z m2916 -23 c-21 -17 -24 -17 -27 -3 -2 9 -9 16 -15 16 -8 0
-8 3 1 9 7 4 25 6 39 3 l26 -5 -24 -20z m-4022 -23 c3 -8 1 -20 -6 -27 -8 -8
-11 -8 -11 0 0 6 -3 18 -6 27 -3 9 -1 16 5 16 7 0 14 -7 18 -16z m991 -19 c-3
-3 -9 2 -12 12 -6 14 -5 15 5 6 7 -7 10 -15 7 -18z m-1068 2 c0 -20 -37 -51
-45 -38 -3 6 1 14 9 17 9 3 16 12 16 20 0 8 5 14 10 14 6 0 10 -6 10 -13z
m4117 -9 c-3 -8 -6 -5 -6 6 -1 11 2 17 5 13 3 -3 4 -12 1 -19z m46 -6 c-3 -12
-9 -22 -14 -22 -12 0 -11 7 3 30 15 24 19 21 11 -8z m-2966 2 c-3 -3 -12 -4
-19 -1 -8 3 -5 6 6 6 11 1 17 -2 13 -5z m2990 -16 c-3 -8 -6 -5 -6 6 -1 11 2
17 5 13 3 -3 4 -12 1 -19z m-4458 -89 c36 -58 36 -59 16 -59 -8 0 -15 9 -15
20 0 12 -11 33 -24 47 -14 15 -23 30 -20 35 8 12 9 11 43 -43z m-49 -131 c0
-5 -3 -8 -8 -8 -9 0 -52 93 -52 114 0 9 -4 16 -10 16 -5 0 -10 10 -10 23 0 14
15 -8 40 -58 22 -44 40 -83 40 -87z m147 100 c-3 -7 -5 -2 -5 12 0 14 2 19 5
13 2 -7 2 -19 0 -25z m1017 -33 c3 -9 0 -15 -9 -15 -8 0 -15 7 -15 15 0 8 4
15 9 15 5 0 11 -7 15 -15z m156 -21 c0 -8 -4 -12 -10 -9 -5 3 -10 10 -10 16 0
5 5 9 10 9 6 0 10 -7 10 -16z m-232 -16 c7 -7 12 -19 12 -27 0 -9 -6 -7 -20 9
-11 13 -20 25 -20 27 0 7 17 2 28 -9z m82 -118 c0 -19 -15 -9 -35 23 -30 50
-29 55 4 19 17 -18 31 -37 31 -42z m4026 -292 c4 -5 -4 -8 -19 -8 -16 0 -27
-7 -30 -17 -3 -12 -5 -9 -6 7 -1 21 4 26 23 25 13 0 28 -3 32 -7z m-4696 -138
c0 -5 -2 -10 -4 -10 -3 0 -8 5 -11 10 -3 6 -1 10 4 10 6 0 11 -4 11 -10z m-80
-49 c0 -6 -4 -13 -10 -16 -5 -3 -10 1 -10 9 0 9 5 16 10 16 6 0 10 -4 10 -9z"/>
<path d="M7700 9414 c0 -8 5 -12 10 -9 6 4 8 11 5 16 -9 14 -15 11 -15 -7z"/>
<path d="M7928 9453 c7 -3 16 -2 19 1 4 3 -2 6 -13 5 -11 0 -14 -3 -6 -6z"/>
<path d="M8576 9423 c-9 -9 -7 -33 3 -33 12 0 22 28 12 34 -5 3 -11 3 -15 -1z"/>
<path d="M8030 9194 c0 -8 5 -12 10 -9 6 4 8 11 5 16 -9 14 -15 11 -15 -7z"/>
<path d="M7055 9241 c-7 -12 12 -24 25 -16 11 7 4 25 -10 25 -5 0 -11 -4 -15
-9z"/>
<path d="M7380 9191 c0 -6 5 -13 10 -16 6 -3 10 1 10 9 0 9 -4 16 -10 16 -5 0
-10 -4 -10 -9z"/>
<path d="M8247 9244 c-9 -10 2 -24 19 -24 8 0 14 7 14 15 0 15 -21 21 -33 9z"/>
<path d="M8302 8893 c-164 -89 -185 -293 -42 -416 47 -40 98 -57 169 -57 92 0
164 48 211 141 27 51 27 158 1 214 -26 56 -90 115 -137 126 -66 15 -166 11
-202 -8z m82 -74 c47 -37 26 -119 -31 -119 -31 0 -73 42 -73 74 0 25 41 66 65
66 7 0 24 -9 39 -21z"/>
<path d="M7294 8636 c-7 -28 2 -49 17 -41 12 8 12 52 -1 60 -5 3 -12 -5 -16
-19z"/>
<path d="M7182 8608 c6 -18 28 -21 28 -4 0 9 -7 16 -16 16 -9 0 -14 -5 -12
-12z"/>
<path d="M7075 8430 c3 -5 10 -10 16 -10 5 0 9 5 9 10 0 6 -7 10 -16 10 -8 0
-12 -4 -9 -10z"/>
<path d="M7824 8195 c-9 -21 3 -45 21 -45 10 0 15 10 15 30 0 32 -26 43 -36
15z"/>
<path d="M7283 8174 c-8 -21 13 -42 28 -27 13 13 5 43 -11 43 -6 0 -13 -7 -17
-16z"/>
<path d="M7715 8160 c-3 -5 3 -10 14 -10 12 0 21 5 21 10 0 6 -6 10 -14 10 -8
0 -18 -4 -21 -10z"/>
<path d="M7510 7940 c0 -5 5 -10 10 -10 6 0 10 5 10 10 0 6 -4 10 -10 10 -5 0
-10 -4 -10 -10z"/>
<path d="M7721 7984 c0 -11 3 -14 6 -6 3 7 2 16 -1 19 -3 4 -6 -2 -5 -13z"/>
<path d="M8158 7988 c9 -9 15 -9 24 0 9 9 7 12 -12 12 -19 0 -21 -3 -12 -12z"/>
<path d="M7604 7126 c-9 -23 0 -51 17 -54 19 -4 32 23 24 49 -7 22 -33 25 -41
5z"/>
<path d="M7294 6466 c-7 -29 1 -46 22 -46 11 0 14 9 12 32 -4 39 -25 48 -34
14z"/>
<path d="M5995 6471 c-8 -26 3 -63 18 -58 21 7 33 36 21 54 -16 25 -31 27 -39
4z"/>
<path d="M6212 6478 c-16 -16 -15 -43 2 -57 18 -15 39 9 34 40 -4 27 -19 34
-36 17z"/>
<path d="M6430 6480 c0 -5 7 -10 15 -10 8 0 15 5 15 10 0 6 -7 10 -15 10 -8 0
-15 -4 -15 -10z"/>
<path d="M6867 6483 c-4 -3 -7 -19 -7 -34 0 -36 28 -47 36 -14 10 39 -9 69
-29 48z"/>
<path d="M6965 6471 c-7 -24 4 -51 21 -51 15 0 29 43 19 59 -10 17 -33 13 -40
-8z"/>
<path d="M7407 6436 c-3 -8 -3 -16 0 -19 9 -10 33 5 33 19 0 18 -26 18 -33 0z"/>
<path d="M7624 6439 c-3 -6 -2 -15 2 -19 12 -12 38 5 30 19 -9 14 -23 14 -32
0z"/>
<path d="M8603 6253 c-18 -6 -16 -50 1 -56 18 -7 26 1 26 29 0 25 -9 34 -27
27z"/>
<path d="M6330 6239 c0 -5 5 -7 10 -4 6 3 10 8 10 11 0 2 -4 4 -10 4 -5 0 -10
-5 -10 -11z"/>
<path d="M6652 6251 c-16 -10 -12 -53 5 -58 6 -2 16 4 22 15 13 24 -7 56 -27
43z"/>
<path d="M6974 6246 c-9 -23 0 -51 16 -51 10 0 15 10 15 29 0 32 -21 47 -31
22z"/>
<path d="M8066 6251 c-4 -5 -2 -12 3 -15 5 -4 12 -2 15 3 4 5 2 12 -3 15 -5 4
-12 2 -15 -3z"/>
<path d="M8377 6236 c-7 -19 17 -51 31 -42 20 12 15 56 -7 56 -10 0 -21 -6
-24 -14z"/>
<path d="M5985 6210 c-8 -12 20 -24 35 -15 6 3 8 11 5 16 -8 12 -32 12 -40 -1z"/>
<path d="M5875 6009 c-9 -29 21 -62 35 -39 14 22 8 54 -12 58 -10 2 -19 -6
-23 -19z"/>
<path d="M5997 5983 c-12 -11 -8 -23 8 -23 8 0 15 7 15 15 0 16 -12 20 -23 8z"/>
<path d="M6217 5983 c-12 -11 -8 -23 8 -23 8 0 15 7 15 15 0 16 -12 20 -23 8z"/>
<path d="M6875 6020 c4 -6 11 -8 16 -5 14 9 11 15 -7 15 -8 0 -12 -5 -9 -10z"/>
<path d="M5776 5785 c-7 -20 4 -47 18 -42 17 6 20 57 3 57 -8 0 -17 -7 -21
-15z"/>
<path d="M8595 5790 c-9 -15 4 -50 20 -50 16 0 29 35 20 50 -3 5 -12 10 -20
10 -8 0 -17 -5 -20 -10z"/>
<path d="M5890 5750 c0 -5 7 -10 15 -10 8 0 15 5 15 10 0 6 -7 10 -15 10 -8 0
-15 -4 -15 -10z"/>
<path d="M6100 5750 c0 -5 9 -10 20 -10 11 0 20 5 20 10 0 6 -9 10 -20 10 -11
0 -20 -4 -20 -10z"/>
<path d="M6651 5796 c-16 -19 -11 -50 10 -54 21 -4 31 32 15 53 -11 15 -13 15
-25 1z"/>
<path d="M6983 5803 c-19 -7 -17 -63 2 -63 9 0 18 7 22 16 8 20 -9 52 -24 47z"/>
<path d="M8070 5795 c0 -8 4 -15 10 -15 5 0 7 7 4 15 -4 8 -8 15 -10 15 -2 0
-4 -7 -4 -15z"/>
<path d="M8373 5784 c-3 -8 2 -23 11 -32 15 -15 17 -15 33 0 13 14 14 20 3 32
-16 20 -39 20 -47 0z"/>
<path d="M6097 5573 c-12 -11 -7 -40 9 -53 21 -18 49 9 39 39 -6 20 -34 28
-48 14z"/>
<path d="M6220 5559 c0 -11 5 -17 10 -14 6 3 10 13 10 21 0 8 -4 14 -10 14 -5
0 -10 -9 -10 -21z"/>
<path d="M6435 5570 c-3 -5 3 -10 15 -10 12 0 18 5 15 10 -3 6 -10 10 -15 10
-5 0 -12 -4 -15 -10z"/>
<path d="M7950 5076 c0 -29 10 -38 29 -27 18 11 10 45 -12 49 -12 3 -17 -3
-17 -22z"/>
<path d="M5565 5090 c-4 -6 -3 -14 0 -20 9 -15 35 -12 35 4 0 17 -27 29 -35
16z"/>
<path d="M8055 5061 c-7 -12 12 -24 25 -16 11 7 4 25 -10 25 -5 0 -11 -4 -15
-9z"/>
<path d="M8275 5101 c-7 -12 12 -24 25 -16 11 7 4 25 -10 25 -5 0 -11 -4 -15
-9z"/>
<path d="M8266 4864 c-7 -17 10 -54 24 -54 12 0 24 46 15 59 -9 16 -32 13 -39
-5z"/>
<path d="M8060 4882 c0 -14 11 -21 26 -15 8 3 11 9 8 14 -7 11 -34 12 -34 1z"/>
<path d="M8605 4880 c-3 -5 1 -10 10 -10 9 0 13 5 10 10 -3 6 -8 10 -10 10 -2
0 -7 -4 -10 -10z"/>
<path d="M7620 4638 c0 -32 13 -49 29 -39 18 11 10 55 -11 59 -13 3 -18 -3
-18 -20z"/>
<path d="M7737 4616 c-3 -8 -2 -18 3 -21 13 -8 24 15 12 27 -6 6 -11 4 -15 -6z"/>
<path d="M7950 4401 c0 -35 13 -47 30 -26 16 19 9 49 -13 53 -13 3 -17 -3 -17
-27z"/>
<path d="M8060 4426 c0 -9 7 -16 16 -16 9 0 14 5 12 12 -6 18 -28 21 -28 4z"/>
<path d="M8280 4420 c0 -5 5 -10 10 -10 6 0 10 5 10 10 0 6 -4 10 -10 10 -5 0
-10 -4 -10 -10z"/>
<path d="M7732 4198 c-24 -24 -5 -72 24 -61 18 7 18 47 1 62 -10 8 -17 7 -25
-1z"/>
<path d="M7845 4200 c-4 -6 -3 -16 3 -22 6 -6 12 -6 17 2 4 6 3 16 -3 22 -6 6
-12 6 -17 -2z"/>
<path d="M7520 4200 c0 -5 5 -10 10 -10 6 0 10 5 10 10 0 6 -4 10 -10 10 -5 0
-10 -4 -10 -10z"/>
<path d="M8060 4200 c0 -5 6 -10 14 -10 8 0 18 5 21 10 3 6 -3 10 -14 10 -12
0 -21 -4 -21 -10z"/>
<path d="M7407 3983 c-9 -8 -9 -58 -1 -66 12 -12 34 6 34 28 0 24 -22 49 -33
38z"/>
<path d="M7630 3969 c0 -11 4 -18 10 -14 5 3 7 12 3 20 -7 21 -13 19 -13 -6z"/>
<path d="M7850 3979 c0 -5 5 -7 10 -4 6 3 10 8 10 11 0 2 -4 4 -10 4 -5 0 -10
-5 -10 -11z"/>
<path d="M6537 3513 c-4 -3 -7 -17 -7 -30 0 -35 34 -26 38 10 3 26 -14 37 -31
20z"/>
<path d="M6860 3470 c0 -5 7 -10 15 -10 8 0 15 5 15 10 0 6 -7 10 -15 10 -8 0
-15 -4 -15 -10z"/>
<path d="M7512 3493 c4 -36 33 -39 33 -3 0 16 -6 26 -18 28 -15 3 -18 -2 -15
-25z"/>
<path d="M5224 3275 c-7 -30 14 -64 27 -43 5 7 9 25 9 41 0 35 -27 37 -36 2z"/>
<path d="M6545 3290 c-3 -5 1 -10 9 -10 9 0 16 5 16 10 0 6 -4 10 -9 10 -6 0
-13 -4 -16 -10z"/>
<path d="M7077 3293 c-13 -12 -7 -54 9 -60 23 -8 38 12 30 41 -6 25 -25 34
-39 19z"/>
<path d="M7184 3275 c-8 -31 10 -55 27 -38 14 14 8 55 -8 60 -7 3 -15 -7 -19
-22z"/>
<path d="M5341 3021 c-10 -7 -10 -10 -1 -16 6 -4 16 -3 22 3 13 13 -4 23 -21
13z"/>
<path d="M5342 2868 c-14 -14 -16 -67 -3 -87 8 -12 12 -12 25 -2 24 20 21 44
-4 36 -22 -7 -28 13 -9 32 6 6 10 16 8 23 -3 8 -8 7 -17 -2z"/>
<path d="M6090 2805 c0 -28 4 -35 19 -35 26 0 34 15 27 46 -4 15 -14 24 -26
24 -16 0 -20 -7 -20 -35z"/>
<path d="M5125 2561 c-6 -11 9 -23 19 -14 9 9 7 23 -3 23 -6 0 -12 -4 -16 -9z"/>
<path d="M9520 8750 c-73 -39 -123 -96 -246 -280 -68 -104 -124 -194 -124
-200 0 -9 23 -10 98 -4 154 14 452 9 582 -10 204 -30 333 -56 403 -81 38 -14
83 -25 102 -25 33 0 33 0 24 32 -30 105 -271 350 -450 457 -202 121 -312 153
-389 111z m157 -132 c-3 -7 -5 -2 -5 12 0 14 2 19 5 13 2 -7 2 -19 0 -25z
m-57 -2 c0 -3 -4 -8 -10 -11 -5 -3 -10 -1 -10 4 0 6 5 11 10 11 6 0 10 -2 10
-4z m190 -256 c0 -5 -5 -10 -11 -10 -5 0 -7 5 -4 10 3 6 8 10 11 10 2 0 4 -4
4 -10z"/>
<path d="M9242 8190 c-40 -5 -75 -10 -78 -12 -4 -5 91 -141 136 -194 75 -88
171 -129 270 -113 120 19 591 206 639 254 16 15 27 12 -164 39 -239 34 -610
46 -803 26z m108 -51 c0 -11 -4 -18 -10 -14 -5 3 -7 12 -3 20 7 21 13 19 13
-6z m623 -66 c-6 -16 -15 -16 -38 0 -17 13 -17 15 6 31 22 15 24 15 30 -1 3
-10 4 -24 2 -30z"/>
<path d="M6706 2384 c-54 -19 -105 -39 -113 -45 -7 -7 -28 -13 -46 -15 -48 -4
-180 -24 -194 -29 -25 -9 -12 -30 35 -61 73 -49 134 -80 170 -87 33 -7 96 -49
209 -142 34 -27 85 -68 113 -90 166 -128 200 -163 200 -203 0 -38 -21 -42
-207 -45 l-179 -2 -57 -35 c-62 -37 -92 -72 -83 -96 5 -13 22 -14 98 -9 71 5
113 3 178 -11 134 -27 170 -28 254 -5 42 12 96 21 119 21 24 0 52 6 62 14 15
11 21 11 30 1 5 -6 37 -22 70 -35 125 -47 282 -116 334 -147 30 -18 60 -33 65
-33 6 0 36 -24 67 -53 39 -36 61 -67 74 -102 24 -65 33 -75 48 -50 36 61 37
167 2 235 -19 36 -106 120 -145 139 -37 18 -47 41 -18 41 36 0 150 -32 185
-51 25 -14 54 -19 111 -19 93 0 135 -18 173 -75 34 -49 53 -51 57 -6 10 100
-42 167 -182 237 -50 25 -113 59 -141 75 l-50 29 -255 -2 -255 -3 -45 33 c-52
37 -108 82 -212 168 -41 33 -87 69 -104 80 -30 20 -196 155 -252 206 -47 43
-51 71 -15 121 17 23 33 52 37 65 6 19 4 22 -16 21 -13 -1 -67 -16 -122 -35z
m-53 -108 c8 -19 1 -24 -28 -19 -15 3 -22 10 -18 19 7 18 39 18 46 0z m63 -43
c16 -21 18 -53 4 -53 -5 0 -10 9 -10 19 0 29 -29 35 -40 8 -8 -21 -9 -21 -9
-1 -1 21 16 44 32 44 6 0 16 -8 23 -17z m61 -64 c1 -19 1 -20 -4 -4 -3 11 -10
24 -17 28 -7 6 -6 7 4 4 8 -2 16 -14 17 -28z m-80 5 c-3 -3 -12 -4 -19 -1 -8
3 -5 6 6 6 11 1 17 -2 13 -5z m63 -44 c0 -5 -10 -10 -22 -9 -22 0 -22 1 -3 9
11 5 21 9 23 9 1 1 2 -3 2 -9z m41 -21 c-12 -12 -25 -18 -28 -15 -3 3 5 14 18
25 31 25 39 17 10 -10z m45 -38 c-18 -20 -46 -18 -46 3 0 15 43 34 54 24 6 -4
2 -16 -8 -27z m112 -39 c-16 -22 -40 -42 -50 -42 -4 0 -8 14 -8 32 0 29 1 30
13 13 15 -20 37 -13 37 11 0 8 5 12 10 9 8 -5 7 -12 -2 -23z m46 -38 c17 -6
22 -24 8 -24 -5 0 -17 7 -28 15 -19 15 -8 20 20 9z m-42 -39 c-2 -14 -6 -25
-8 -25 -2 0 -4 11 -4 25 0 14 4 25 9 25 4 0 6 -11 3 -25z m92 -11 c20 -8 21
-40 1 -48 -18 -7 -20 5 -2 23 10 11 8 11 -10 0 -26 -16 -41 -6 -23 16 14 17
13 17 34 9z m660 -289 c3 -8 1 -15 -4 -15 -6 0 -10 7 -10 15 0 8 2 15 4 15 2
0 6 -7 10 -15z m-407 -77 c-3 -8 -6 -5 -6 6 -1 11 2 17 5 13 3 -3 4 -12 1 -19z"/>
</g>
</svg>
